<?xml version='1.0' encoding='utf-8'?>
<COLLADA xmlns="http://www.collada.org/2005/11/COLLADASchema" version="1.4.1">
  <asset>
    <contributor>
      <author>Blender User</author>
      <authoring_tool>Blender 4.4.3 commit date:2025-04-29, commit time:14:09, hash:802179c51ccc</authoring_tool>
    </contributor>
    <created>2026-08-03T09:54:38</created>
    <modified>2026-08-03T09:54:38</modified>
    <unit name="millimeter" meter="0.001" />
    <up_axis>Z_UP</up_axis>
  </asset>
  <library_effects>
    <effect id="Material_1-effect">
      <profile_COMMON>
        <technique sid="common">
          <lambert>
            <emission>
              <color sid="emission">0 0 0 1</color>
            </emission>
            <diffuse>
              <color sid="diffuse">0.03310477 0.03310477 0.03310477 1</color>
            </diffuse>
            <index_of_refraction>
              <float sid="ior">1.5</float>
            </index_of_refraction>
          </lambert>
        </technique>
      </profile_COMMON>
    </effect>
    <effect id="Material_0-effect">
      <profile_COMMON>
        <technique sid="common">
          <lambert>
            <emission>
              <color sid="emission">0 0 0 1</color>
            </emission>
            <diffuse>
              <color sid="diffuse">0.07421356 0.07421356 0.07421356 1</color>
            </diffuse>
            <index_of_refraction>
              <float sid="ior">1.5</float>
            </index_of_refraction>
          </lambert>
        </technique>
      </profile_COMMON>
    </effect>
  </library_effects>
  <library_images />
  <library_materials>
    <material id="Material_1-material" name="Material_1">
      <instance_effect url="#Material_1-effect" />
    </material>
    <material id="Material_0-material" name="Material_0">
      <instance_effect url="#Material_0-effect" />
    </material>
  </library_materials>
  <library_geometries>
    <geometry id="Mesh4-mesh" name="Mesh4">
      <mesh>
        <source id="Mesh4-mesh-positions">
          <float_array id="Mesh4-mesh-positions-array" count="2370">0 115.5 -193 0 112.5 -193 307.5 112.5 -193 307.5 115.5 -193 0 -114.5 -173 0 -114.5 -200.5 0 -115.5 -173 0 -143.5 -173 0 -143.5 -167.25 0 -162.5 -193 0 -143.5 -161.5 0 -141.97 -205 0 -144.5 -173 0 -115.5 -150 0 -104.491 -228 0 -162.5 -205 0 -168.5 -193 0 -143.5 -150 0 -144.102 -229.375 0 -168.5 -168.4 0 -146.235 -253.75 0 -144.5 -168.4 0 133.5 -259.75 0 -150.5 -302.5 0 87.4923 -228 0 133.5 -302.5 0 133.5 -217 0 -197 -315 0 97.5 -200.504 0 180 -315 0 -197 -302.5 0 112.5 -200.504 0 180 -302.5 0 143.5 -193 0 115.5 -193 0 147.5 -217 0 115.5 -170 0 112.5 -193 0 147.5 -193 0 143.5 -170 307.5 -143.5 -173 0 -143.5 -173 62.5 -144.5 -173 0 -144.5 -173 307.5 -144.5 -173 114.04 149.04 -315 0 -197 -315 0 180 -315 114.04 -166.04 -315 112.112 151.389 -315 116.389 -164.112 -315 112.112 -168.389 -315 110.68 154.068 -315 116.389 147.112 -315 110.68 -171.068 -315 109.798 156.976 -315 119.068 145.68 -315 109.798 -173.976 -315 109.5 160 -315 119.068 -162.68 -315 109.5 -177 -315 109.798 163.024 -315 121.976 -161.798 -315 109.798 -180.024 -315 110.68 165.932 -315 121.976 144.798 -315 110.68 -182.932 -315 112.112 168.611 -315 125 144.5 -315 112.112 -185.611 -315 114.04 170.96 -315 125 -161.5 -315 114.04 -187.96 -315 116.389 172.888 -315 128.024 -161.798 -315 116.389 -189.888 -315 119.068 174.32 -315 128.024 144.798 -315 119.068 -191.32 -315 121.976 175.202 -315 130.932 145.68 -315 121.976 -192.202 -315 125 175.5 -315 130.932 -162.68 -315 125 -192.5 -315 307.5 180 -315 133.611 -164.112 -315 307.5 -197 -315 128.024 175.202 -315 133.611 147.112 -315 128.024 -192.202 -315 130.932 174.32 -315 135.96 149.04 -315 130.932 -191.32 -315 133.611 172.888 -315 135.96 -166.04 -315 133.611 -189.888 -315 135.96 170.96 -315 135.96 -187.96 -315 137.888 168.611 -315 137.888 -168.389 -315 137.888 -185.611 -315 139.32 165.932 -315 137.888 151.389 -315 139.32 -171.068 -315 139.32 -182.932 -315 140.202 163.024 -315 139.32 154.068 -315 140.202 -173.976 -315 140.202 -180.024 -315 140.5 160 -315 140.202 156.976 -315 140.5 -177 -315 307.5 180 -315 307.5 180 -302.5 307.5 133.5 -302.5 307.5 -150.5 -302.5 307.5 133.5 -259.75 307.5 -197 -315 307.5 -146.235 -253.75 307.5 -197 -302.5 307.5 87.4923 -228 307.5 133.5 -217 307.5 -104.491 -228 307.5 97.5 -200.504 307.5 -144.102 -229.375 307.5 112.5 -200.504 307.5 -141.97 -205 307.5 147.5 -217 307.5 -114.5 -200.5 307.5 143.5 -193 307.5 -144.5 -193 307.5 147.5 -193 307.5 115.5 -193 307.5 -144.5 -183 307.5 -162.5 -205 307.5 112.5 -193 307.5 -114.5 -173 307.5 -162.5 -193 307.5 -115.5 -173 307.5 -143.5 -173 307.5 -144.5 -173 0 133.5 -302.5 307.5 133.5 -302.5 125 144.5 -302.5 128.024 144.798 -302.5 121.976 144.798 -302.5 130.932 145.68 -302.5 119.068 145.68 -302.5 133.611 147.112 -302.5 116.389 147.112 -302.5 135.96 149.04 -302.5 114.04 149.04 -302.5 137.888 151.389 -302.5 112.112 151.389 -302.5 139.32 154.068 -302.5 110.68 154.068 -302.5 140.202 156.976 -302.5 109.798 156.976 -302.5 307.5 180 -302.5 0 180 -302.5 140.5 160 -302.5 109.5 160 -302.5 140.202 163.024 -302.5 109.798 163.024 -302.5 139.32 165.932 -302.5 110.68 165.932 -302.5 137.888 168.611 -302.5 112.112 168.611 -302.5 135.96 170.96 -302.5 114.04 170.96 -302.5 133.611 172.888 -302.5 116.389 172.888 -302.5 130.932 174.32 -302.5 119.068 174.32 -302.5 128.024 175.202 -302.5 121.976 175.202 -302.5 125 175.5 -302.5 109.798 -173.976 -302.5 0 -150.5 -302.5 0 -197 -302.5 110.68 -171.068 -302.5 109.5 -177 -302.5 112.112 -168.389 -302.5 109.798 -180.024 -302.5 114.04 -166.04 -302.5 110.68 -182.932 -302.5 116.389 -164.112 -302.5 112.112 -185.611 -302.5 119.068 -162.68 -302.5 114.04 -187.96 -302.5 121.976 -161.798 -302.5 116.389 -189.888 -302.5 125 -161.5 -302.5 119.068 -191.32 -302.5 307.5 -150.5 -302.5 121.976 -192.202 -302.5 128.024 -161.798 -302.5 125 -192.5 -302.5 130.932 -162.68 -302.5 307.5 -197 -302.5 133.611 -164.112 -302.5 128.024 -192.202 -302.5 135.96 -166.04 -302.5 130.932 -191.32 -302.5 137.888 -168.389 -302.5 133.611 -189.888 -302.5 139.32 -171.068 -302.5 135.96 -187.96 -302.5 140.202 -173.976 -302.5 137.888 -185.611 -302.5 139.32 -182.932 -302.5 140.5 -177 -302.5 140.202 -180.024 -302.5 307.5 -141.97 -205 0 -141.97 -205 0 -150.5 -302.5 307.5 -150.5 -302.5 0 -162.5 -205 0 -141.97 -205 307.5 -141.97 -205 307.5 -162.5 -205 142.5 -162.5 -193 307.5 -162.5 -205 307.5 -162.5 -193 0 -162.5 -205 62.5 -162.5 -193 0 -162.5 -193 307.5 -162.5 -193 307.5 -144.5 -193 347.5 -144.5 -193 347.5 -194.5 -193 142.5 -194.5 -193 142.5 -162.5 -193 142.5 -144.5 -193 62.5 -144.5 -193 62.5 -162.5 -193 142.5 -162.5 -193 142.5 -144.5 -193 142.5 -144.5 -183 62.5 -144.5 -193 62.5 -144.5 -173 307.5 -144.5 -173 307.5 -144.5 -183 307.5 -114.5 -173 0 -114.5 -173 0 -115.5 -173 307.5 -115.5 -173 307.5 -114.5 -200.5 0 -114.5 -200.5 0 -114.5 -173 307.5 -114.5 -173 307.5 -104.491 -228 0 -104.491 -228 0 -114.5 -200.5 307.5 -114.5 -200.5 307.5 87.4923 -228 0 87.4923 -228 0 -104.491 -228 307.5 -104.491 -228 307.5 97.5 -200.504 0 97.5 -200.504 0 87.4923 -228 307.5 87.4923 -228 0 112.5 -200.504 0 97.5 -200.504 307.5 97.5 -200.504 307.5 112.5 -200.504 307.5 112.5 -193 0 112.5 -193 0 112.5 -200.504 307.5 112.5 -200.504 307.5 143.5 -193 307.5 147.5 -193 0 147.5 -193 0 143.5 -193 307.5 147.5 -217 0 147.5 -217 0 147.5 -193 307.5 147.5 -193 0 133.5 -217 0 147.5 -217 307.5 147.5 -217 307.5 133.5 -217 307.5 133.5 -302.5 0 133.5 -302.5 0 133.5 -217 307.5 133.5 -217 307.5 180 -315 0 180 -315 0 180 -302.5 307.5 180 -302.5 307.5 -197 -302.5 0 -197 -302.5 0 -197 -315 307.5 -197 -315 62.5 -144.5 -168.4 0 -144.5 -168.4 0 -168.5 -168.4 62.5 -168.5 -168.4 62.5 -168.5 -168.4 0 -168.5 -168.4 0 -168.5 -193 62.5 -168.5 -193 62.5 -168.5 -193 0 -168.5 -193 0 -162.5 -193 62.5 -162.5 -193 312.5 -115.5 -173 312.5 -143.5 -173 307.5 -143.5 -173 307.5 -115.5 -173 312.5 -115.5 -150 0 -115.5 -150 0 -143.5 -150 312.5 -143.5 -150 312.5 -115.5 -173 307.5 -115.5 -173 312.5 -115.5 -150 0 -115.5 -150 0 -115.5 -173 312.5 -143.5 -150 0 -143.5 -150 307.5 -143.5 -173 0 -143.5 -173 312.5 -143.5 -173 312.5 143.5 -193 312.5 115.5 -193 307.5 115.5 -193 307.5 143.5 -193 312.5 143.5 -170 0 143.5 -170 0 115.5 -170 312.5 115.5 -170 312.5 143.5 -193 307.5 143.5 -193 312.5 143.5 -170 0 143.5 -170 0 143.5 -193 312.5 115.5 -170 0 115.5 -170 307.5 115.5 -193 0 115.5 -193 312.5 115.5 -193 307.5 -144.5 -183 142.5 -144.5 -183 142.5 -166.5 -183 347.5 -166.5 -183 347.5 -144.5 -183 142.5 -194.5 -193 142.5 -194.5 -183 142.5 -166.5 -183 142.5 -162.5 -193 142.5 -144.5 -183 142.5 -144.5 -193 142.5 -194.5 -183 142.5 -194.5 -193 347.5 -194.5 -193 347.5 -194.5 -153 115 -194.5 -153 115 -194.5 -183 347.5 -144.5 -183 347.5 -166.5 -183 347.5 -144.5 -193 347.5 -194.5 -193 347.5 -194.5 -153 347.5 -166.5 -153 347.5 -194.5 -153 347.5 -166.5 -153 115 -166.5 -153 115 -194.5 -153 115 -166.5 -183 115 -194.5 -183 115 -194.5 -153 115 -166.5 -153 115 -166.5 -183 142.5 -166.5 -183 142.5 -194.5 -183 115 -194.5 -183 142.5 -166.5 -183 115 -166.5 -183 115 -166.5 -153 347.5 -166.5 -153 347.5 -166.5 -183 62.5 -144.5 -173 0 -144.5 -173 0 -144.5 -168.4 62.5 -144.5 -168.4 62.5 -168.5 -193 62.5 -162.5 -193 62.5 -168.5 -168.4 62.5 -144.5 -173 62.5 -144.5 -193 62.5 -144.5 -168.4 312.5 -143.5 -150 312.5 -143.5 -173 312.5 -115.5 -173 312.5 -115.5 -150 312.5 115.5 -170 312.5 115.5 -193 312.5 143.5 -193 312.5 143.5 -170 307.5 -144.5 -193 307.5 -144.5 -183 347.5 -144.5 -183 347.5 -144.5 -193 125 -161.5 -315 128.024 -161.798 -315 128.024 -161.798 -357 130.932 -162.68 -357 125 -161.5 -357 130.932 -162.68 -315 121.976 -161.798 -315 133.611 -164.112 -357 121.976 -161.798 -357 133.611 -164.112 -315 119.068 -162.68 -315 135.96 -166.04 -357 119.068 -162.68 -357 135.96 -166.04 -315 116.389 -164.112 -315 137.888 -168.389 -357 116.389 -164.112 -357 137.888 -168.389 -315 114.04 -166.04 -315 139.32 -171.068 -357 114.04 -166.04 -357 139.32 -171.068 -315 112.112 -168.389 -315 140.202 -173.976 -357 112.112 -168.389 -357 140.202 -173.976 -315 110.68 -171.068 -315 140.5 -177 -315 110.68 -171.068 -357 140.5 -177 -357 109.798 -173.976 -315 140.202 -180.024 -357 109.798 -173.976 -357 140.202 -180.024 -315 109.5 -177 -315 139.32 -182.932 -357 109.5 -177 -357 139.32 -182.932 -315 109.798 -180.024 -357 137.888 -185.611 -357 109.798 -180.024 -315 137.888 -185.611 -315 110.68 -182.932 -315 135.96 -187.96 -357 110.68 -182.932 -357 135.96 -187.96 -315 112.112 -185.611 -315 133.611 -189.888 -357 112.112 -185.611 -357 133.611 -189.888 -315 114.04 -187.96 -315 130.932 -191.32 -357 114.04 -187.96 -357 130.932 -191.32 -315 116.389 -189.888 -315 128.024 -192.202 -357 116.389 -189.888 -357 128.024 -192.202 -315 119.068 -191.32 -315 125 -192.5 -357 119.068 -191.32 -357 125 -192.5 -315 121.976 -192.202 -315 121.976 -192.202 -357 125 175.5 -315 128.024 175.202 -315 128.024 175.202 -357 130.932 174.32 -357 125 175.5 -357 130.932 174.32 -315 121.976 175.202 -315 133.611 172.888 -357 121.976 175.202 -357 133.611 172.888 -315 119.068 174.32 -315 135.96 170.96 -357 119.068 174.32 -357 135.96 170.96 -315 116.389 172.888 -315 137.888 168.611 -357 116.389 172.888 -357 137.888 168.611 -315 114.04 170.96 -315 139.32 165.932 -357 114.04 170.96 -357 139.32 165.932 -315 112.112 168.611 -315 140.202 163.024 -357 112.112 168.611 -357 140.202 163.024 -315 110.68 165.932 -315 140.5 160 -315 110.68 165.932 -357 140.5 160 -357 109.798 163.024 -315 140.202 156.976 -357 109.798 163.024 -357 140.202 156.976 -315 109.5 160 -315 139.32 154.068 -357 109.5 160 -357 139.32 154.068 -315 109.798 156.976 -357 137.888 151.389 -357 109.798 156.976 -315 137.888 151.389 -315 110.68 154.068 -315 135.96 149.04 -357 110.68 154.068 -357 135.96 149.04 -315 112.112 151.389 -315 133.611 147.112 -357 112.112 151.389 -357 133.611 147.112 -315 114.04 149.04 -315 130.932 145.68 -357 114.04 149.04 -357 130.932 145.68 -315 116.389 147.112 -315 128.024 144.798 -357 116.389 147.112 -357 128.024 144.798 -315 119.068 145.68 -315 125 144.5 -357 119.068 145.68 -357 125 144.5 -315 121.976 144.798 -315 121.976 144.798 -357 140.5 160 -246.5 140.202 156.976 -246.5 140.202 156.976 -302.5 139.32 154.068 -302.5 140.5 160 -302.5 139.32 154.068 -246.5 140.202 163.024 -302.5 137.888 151.389 -302.5 140.202 163.024 -246.5 137.888 151.389 -246.5 139.32 165.932 -246.5 135.96 149.04 -302.5 139.32 165.932 -302.5 135.96 149.04 -246.5 137.888 168.611 -246.5 133.611 147.112 -302.5 137.888 168.611 -302.5 133.611 147.112 -246.5 135.96 170.96 -246.5 130.932 145.68 -302.5 135.96 170.96 -302.5 130.932 145.68 -246.5 133.611 172.888 -246.5 128.024 144.798 -302.5 133.611 172.888 -302.5 128.024 144.798 -246.5 130.932 174.32 -246.5 125 144.5 -302.5 130.932 174.32 -302.5 125 144.5 -246.5 128.024 175.202 -246.5 121.976 144.798 -302.5 128.024 175.202 -302.5 121.976 144.798 -246.5 125 175.5 -246.5 119.068 145.68 -302.5 125 175.5 -302.5 119.068 145.68 -246.5 121.976 175.202 -246.5 116.389 147.112 -302.5 121.976 175.202 -302.5 116.389 147.112 -246.5 119.068 174.32 -246.5 114.04 149.04 -302.5 119.068 174.32 -302.5 114.04 149.04 -246.5 116.389 172.888 -246.5 112.112 151.389 -302.5 116.389 172.888 -302.5 112.112 151.389 -246.5 114.04 170.96 -246.5 110.68 154.068 -302.5 114.04 170.96 -302.5 110.68 154.068 -246.5 112.112 168.611 -246.5 109.798 156.976 -302.5 112.112 168.611 -302.5 109.798 156.976 -246.5 110.68 165.932 -246.5 109.5 160 -246.5 110.68 165.932 -302.5 109.5 160 -302.5 109.798 163.024 -246.5 109.798 163.024 -302.5 140.5 -177 -246.5 140.202 -180.024 -246.5 140.202 -180.024 -302.5 139.32 -182.932 -302.5 140.5 -177 -302.5 139.32 -182.932 -246.5 140.202 -173.976 -302.5 137.888 -185.611 -302.5 140.202 -173.976 -246.5 137.888 -185.611 -246.5 139.32 -171.068 -246.5 135.96 -187.96 -302.5 139.32 -171.068 -302.5 135.96 -187.96 -246.5 137.888 -168.389 -246.5 133.611 -189.888 -302.5 137.888 -168.389 -302.5 133.611 -189.888 -246.5 135.96 -166.04 -246.5 130.932 -191.32 -302.5 135.96 -166.04 -302.5 130.932 -191.32 -246.5 133.611 -164.112 -246.5 128.024 -192.202 -302.5 133.611 -164.112 -302.5 128.024 -192.202 -246.5 130.932 -162.68 -246.5 125 -192.5 -302.5 130.932 -162.68 -302.5 125 -192.5 -246.5 128.024 -161.798 -246.5 121.976 -192.202 -302.5 128.024 -161.798 -302.5 121.976 -192.202 -246.5 125 -161.5 -246.5 119.068 -191.32 -302.5 125 -161.5 -302.5 119.068 -191.32 -246.5 121.976 -161.798 -246.5 116.389 -189.888 -302.5 121.976 -161.798 -302.5 116.389 -189.888 -246.5 119.068 -162.68 -246.5 114.04 -187.96 -302.5 119.068 -162.68 -302.5 114.04 -187.96 -246.5 116.389 -164.112 -246.5 112.112 -185.611 -302.5 116.389 -164.112 -302.5 112.112 -185.611 -246.5 114.04 -166.04 -246.5 110.68 -182.932 -302.5 114.04 -166.04 -302.5 110.68 -182.932 -246.5 112.112 -168.389 -246.5 109.798 -180.024 -302.5 112.112 -168.389 -302.5 109.798 -180.024 -246.5 110.68 -171.068 -246.5 109.5 -177 -246.5 110.68 -171.068 -302.5 109.5 -177 -302.5 109.798 -173.976 -246.5 109.798 -173.976 -302.5 109.798 156.976 -357 109.5 160 -357 112.112 151.389 -357 116.389 147.112 -357 110.68 154.068 -357 125 144.5 -357 114.04 149.04 -357 140.5 160 -357 121.976 144.798 -357 125 175.5 -357 137.888 151.389 -357 119.068 145.68 -357 112.112 168.611 -357 133.611 172.888 -357 140.202 156.976 -357 133.611 147.112 -357 109.798 163.024 -357 116.389 172.888 -357 128.024 175.202 -357 137.888 168.611 -357 139.32 154.068 -357 135.96 149.04 -357 128.024 144.798 -357 110.68 165.932 -357 121.976 175.202 -357 114.04 170.96 -357 130.932 174.32 -357 135.96 170.96 -357 140.202 163.024 -357 130.932 145.68 -357 119.068 174.32 -357 139.32 165.932 -357 109.798 -180.024 -357 109.5 -177 -357 112.112 -185.611 -357 116.389 -189.888 -357 110.68 -182.932 -357 125 -192.5 -357 114.04 -187.96 -357 140.5 -177 -357 121.976 -192.202 -357 125 -161.5 -357 137.888 -185.611 -357 119.068 -191.32 -357 112.112 -168.389 -357 133.611 -164.112 -357 140.202 -180.024 -357 133.611 -189.888 -357 109.798 -173.976 -357 116.389 -164.112 -357 128.024 -161.798 -357 137.888 -168.389 -357 139.32 -182.932 -357 135.96 -187.96 -357 128.024 -192.202 -357 110.68 -171.068 -357 121.976 -161.798 -357 114.04 -166.04 -357 130.932 -162.68 -357 135.96 -166.04 -357 140.202 -173.976 -357 130.932 -191.32 -357 119.068 -162.68 -357 139.32 -171.068 -357 109.5 160 -246.5 109.798 156.976 -246.5 112.112 151.389 -246.5 110.68 154.068 -246.5 125 144.5 -246.5 116.389 147.112 -246.5 140.5 160 -246.5 114.04 149.04 -246.5 121.976 144.798 -246.5 125 175.5 -246.5 133.611 147.112 -246.5 119.068 145.68 -246.5 137.888 168.611 -246.5 116.389 172.888 -246.5 137.888 151.389 -246.5 128.024 144.798 -246.5 140.202 163.024 -246.5 133.611 172.888 -246.5 121.976 175.202 -246.5 112.112 168.611 -246.5 140.202 156.976 -246.5 135.96 149.04 -246.5 130.932 145.68 -246.5 139.32 165.932 -246.5 128.024 175.202 -246.5 135.96 170.96 -246.5 119.068 174.32 -246.5 114.04 170.96 -246.5 109.798 163.024 -246.5 139.32 154.068 -246.5 130.932 174.32 -246.5 110.68 165.932 -246.5 109.5 -177 -246.5 109.798 -180.024 -246.5 112.112 -185.611 -246.5 110.68 -182.932 -246.5 125 -192.5 -246.5 116.389 -189.888 -246.5 140.5 -177 -246.5 114.04 -187.96 -246.5 121.976 -192.202 -246.5 125 -161.5 -246.5 133.611 -189.888 -246.5 119.068 -191.32 -246.5 137.888 -168.389 -246.5 116.389 -164.112 -246.5 137.888 -185.611 -246.5 128.024 -192.202 -246.5 140.202 -173.976 -246.5 133.611 -164.112 -246.5 121.976 -161.798 -246.5 112.112 -168.389 -246.5 140.202 -180.024 -246.5 135.96 -187.96 -246.5 130.932 -191.32 -246.5 139.32 -171.068 -246.5 128.024 -161.798 -246.5 135.96 -166.04 -246.5 119.068 -162.68 -246.5 114.04 -166.04 -246.5 109.798 -173.976 -246.5 139.32 -182.932 -246.5 130.932 -162.68 -246.5 110.68 -171.068 -246.5</float_array>
          <technique_common>
            <accessor source="#Mesh4-mesh-positions-array" count="790" stride="3">
              <param name="X" type="float" />
              <param name="Y" type="float" />
              <param name="Z" type="float" />
            </accessor>
          </technique_common>
        </source>
        <source id="Mesh4-mesh-normals">
          <float_array id="Mesh4-mesh-normals-array" count="1059">0 0 1 -1 0 0 -1 0 0 -1 0 0 0 0 -1 4.34854e-7 0 -1 -2.13737e-5 0 -1 1.50684e-5 0 -1 -1.2185e-5 0 -1 5.27176e-6 0 -1 1.2185e-5 0 -1 -1.50684e-5 0 -1 2.13739e-5 0 -1 -6.10279e-6 0 -1 -2.89091e-7 0 -1 4.77821e-7 0 -1 -1.29635e-6 0 -1 1.16158e-6 0 -1 -1.38756e-6 0 -1 1.41717e-6 0 -1 -2.00861e-6 0 -1 1.01278e-6 0 -1 -1.71151e-6 0 -1 1.54157e-6 0 -1 -3.65229e-7 0 -1 -2.07416e-6 0 -1 -6.93793e-7 0 -1 6.0036e-7 0 -1 -3.65226e-7 0 -1 1.54159e-6 0 -1 1 0 0 1 8.45557e-7 0 1 1.26813e-7 0 1 -1.26813e-7 0 2.5542e-6 0 1 -3.47666e-6 0 1 -2.81994e-7 0 1 -1.03708e-6 0 1 1.54159e-6 0 1 -1.38758e-6 0 1 2.02557e-6 0 1 -1.3143e-6 0 1 -1.4172e-6 0 1 2.00861e-6 0 1 -2.10126e-6 0 1 -1.08644e-6 0 1 1.54157e-6 0 1 -3.47657e-6 0 1 2.59772e-6 0 1 -1.41717e-6 0 1 -1.38756e-6 0 1 5.80795e-7 0 1 0 -0.9961947 0.08715611 0 -0.9961947 0.08715635 0 -1 0 0 1 0 0 0.9396923 0.342021 0 0.9396924 0.3420206 0 -0.939692 0.3420218 0 -0.9396921 0.3420215 1.52992e-6 1 0 0.1950964 0.9807841 0 0.1950935 0.9807847 0 -7.67341e-7 1 0 -0.1950953 0.9807843 0 -0.1950951 0.9807843 0 -0.3826907 0.9238766 0 -0.3826903 0.9238768 0 -0.5555555 0.8314796 0 -0.5555568 0.8314785 0 -0.7071039 0.7071096 0 -0.7071092 0.7071045 0 -0.8314756 0.5555614 0 -0.8314815 0.5555526 0 -0.9238768 0.3826904 0 -0.9238772 0.3826892 0 -0.9807843 0.1950951 0 -0.9807847 0.1950936 0 -1 -2.47835e-7 0 -1 -1.85879e-7 0 -0.9807852 -0.1950912 0 -0.9807838 -0.1950981 0 -0.9238777 -0.3826881 0 -0.9238771 -0.3826894 0 -0.8314812 -0.555553 0 -0.8314754 -0.5555617 0 -0.7071093 -0.7071043 0 -0.7071043 -0.7071094 0 -0.5555584 -0.8314775 0 -0.555557 -0.8314785 0 -0.3826879 -0.9238777 0 -0.3826884 -0.9238775 0 -0.1950951 -0.9807843 0 -0.1950953 -0.9807844 0 -7.67341e-7 -1 0 1.52038e-6 -1 0 0.1950935 -0.9807847 0 0.1950964 -0.9807841 0 0.3826848 -0.923879 0 0.3826888 -0.9238773 0 0.5555577 -0.8314781 0 0.5555585 -0.8314776 0 0.707108 -0.7071056 0 0.7071055 -0.7071081 0 0.8314787 -0.5555568 0 0.8314762 -0.5555604 0 0.9238797 -0.382683 0 0.9238764 -0.3826911 0 0.9807842 -0.1950957 0 0.9807846 -0.195094 0 1 -2.38303e-7 0 1 -1.85879e-7 0 0.9807859 0.1950878 0 0.9807831 0.1951015 0 0.9238761 0.3826921 0 0.9238793 0.3826843 0 0.8314764 0.5555601 0 0.831479 0.5555564 0 0.7071052 0.7071084 0 0.7071077 0.7071059 0 0.555557 0.8314786 0 0.5555561 0.8314791 0 0.3826912 0.9238764 0 0.3826872 0.9238781 0 1.52038e-6 1 0 0.1950964 0.9807841 0 0.1950935 0.9807847 0 -7.67341e-7 1 0 -0.1950953 0.9807844 0 -0.1950951 0.9807843 0 -0.3826884 0.9238775 0 -0.3826879 0.9238777 0 -0.555557 0.8314785 0 -0.5555584 0.8314775 0 -0.7071043 0.7071094 0 -0.7071093 0.7071043 0 -0.8314754 0.5555617 0 -0.8314812 0.555553 0 -0.9238771 0.3826892 0 -0.9238777 0.3826882 0 -0.9807843 0.1950954 0 -0.9807846 0.1950938 0 -1 2.47835e-7 0 -1 1.85879e-7 0 -0.9807853 -0.195091 0 -0.9807839 -0.1950978 0 -0.9238773 -0.3826891 0 -0.9238767 -0.3826905 0 -0.8314815 -0.5555526 0 -0.8314756 -0.5555614 0 -0.7071092 -0.7071045 0 -0.7071039 -0.7071096 0 -0.5555568 -0.8314785 0 -0.5555555 -0.8314796 0 -0.3826903 -0.9238768 0 -0.3826907 -0.9238766 0 -0.1950951 -0.9807843 0 -0.1950953 -0.9807843 0 -7.67341e-7 -1 0 1.52992e-6 -1 0 0.1950935 -0.9807847 0 0.1950964 -0.9807841 0 0.3826872 -0.9238781 0 0.3826912 -0.9238764 0 0.5555561 -0.8314791 0 0.555557 -0.8314786 0 0.7071077 -0.7071059 0 0.7071052 -0.7071084 0 0.831479 -0.5555564 0 0.8314764 -0.5555601 0 0.9238793 -0.3826841 0 0.9238759 -0.3826921 0 0.9807842 -0.1950955 0 0.9807846 -0.1950938 0 1 2.38303e-7 0 1 1.85879e-7 0 0.9807859 0.1950879 0 0.9807831 0.1951017 0 0.9238765 0.382691 0 0.9238796 0.3826832 0 0.8314762 0.5555604 0 0.8314787 0.5555568 0 0.7071055 0.7071081 0 0.707108 0.7071056 0 0.5555585 0.8314776 0 0.5555577 0.8314781 0 0.3826888 0.9238773 0 0.3826848 0.923879 0 1 2.57367e-7 0 0.9807843 -0.1950954 0 0.9807847 -0.1950935 0 1 2.47839e-7 0 0.9807856 0.1950893 0 0.9807835 0.1951 0 0.9238751 0.3826942 0 0.9238803 0.3826818 0 0.8314762 0.5555605 0 0.8314783 0.5555574 0 0.7071074 0.7071062 0 0.7071057 0.7071079 0 0.5555585 0.8314775 0 0.5555577 0.8314779 0 0.3826894 0.9238771 0 0.3826839 0.9238793 0 0.195097 0.9807841 0 0.1950937 0.9807846 0 1.42983e-6 1 0 -8.34066e-7 1 0 -0.1950948 0.9807845 0 -0.1950954 0.9807844 0 -0.3826879 0.9238777 0 -0.3826879 0.9238777 0 -0.5555569 0.8314785 0 -0.5555583 0.8314776 0 -0.7071048 0.7071089 0 -0.707109 0.7071046 0 -0.8314753 0.5555618 0 -0.8314813 0.5555527 0 -0.9238765 0.3826909 0 -0.923879 0.3826848 0 -0.9807838 0.1950981 0 -0.9807853 0.195091 0 -1 2.57367e-7 0 -1 2.47839e-7 0 -0.9807851 -0.1950916 0 -0.980784 -0.195097 0 -0.9238786 -0.3826859 0 -0.923876 -0.382692 0 -0.8314816 -0.5555524 0 -0.8314755 -0.5555615 0 -0.7071086 -0.7071049 0 -0.7071045 -0.7071091 0 -0.5555566 -0.8314787 0 -0.5555553 -0.8314796 0 -0.3826902 -0.9238768 0 -0.38269 -0.9238768 0 -0.1950946 -0.9807844 0 -8.38832e-7 -1 0 1.42983e-6 -1 0 0.1950936 -0.9807847 0 0.1950967 -0.980784 0 0.3826861 -0.9238784 0 0.3826916 -0.9238763 0 0.555556 -0.8314791 0 0.5555568 -0.8314787 0 0.7071053 -0.7071083 0 0.7071072 -0.7071064 0 0.8314785 -0.5555571 0 0.9238798 -0.3826829 0 0.9238747 -0.3826953 0 1 -2.57367e-7 0 0.9807842 -0.1950955 0 0.9807846 -0.1950937 0 1 -2.47839e-7 0 0.9807856 0.1950891 0 0.9807835 0.1950997 0 0.9238747 0.3826953 0 0.9238798 0.3826829 0 0.8314785 0.5555571 0 0.7071071 0.7071065 0 0.7071054 0.7071083 0 0.5555567 0.8314787 0 0.5555561 0.8314791 0 0.3826916 0.9238762 0 0.3826861 0.9238784 0 0.1950968 0.980784 0 0.1950935 0.9807847 0 1.42983e-6 1 0 -8.38832e-7 1 0 -0.1950947 0.9807844 0 -0.1950953 0.9807843 0 -0.3826901 0.9238768 0 -0.3826901 0.9238768 0 -0.5555552 0.8314797 0 -0.5555567 0.8314787 0 -0.7071045 0.7071092 0 -0.7071087 0.7071049 0 -0.8314755 0.5555615 0 -0.8314816 0.5555524 0 -0.923876 0.382692 0 -0.9238786 0.3826859 0 -0.9807838 0.1950978 0 -0.9807853 0.1950908 0 -1 -2.57367e-7 0 -1 -2.47839e-7 0 -0.980785 -0.1950919 0 -0.980784 -0.1950973 0 -0.923879 -0.3826848 0 -0.9238765 -0.3826909 0 -0.8314813 -0.5555527 0 -0.8314753 -0.5555618 0 -0.707109 -0.7071046 0 -0.7071048 -0.7071089 0 -0.5555583 -0.8314776 0 -0.5555569 -0.8314785 0 -0.3826879 -0.9238777 0 -0.3826879 -0.9238777 0 -0.1950954 -0.9807844 0 -0.1950948 -0.9807845 0 -8.34066e-7 -1 0 1.42983e-6 -1 0 0.1950937 -0.9807846 0 0.195097 -0.9807841 0 0.3826839 -0.9238793 0 0.3826894 -0.9238771 0 0.5555577 -0.8314779 0 0.5555585 -0.8314775 0 0.7071057 -0.7071079 0 0.7071074 -0.7071062 0 0.8314783 -0.5555574 0 0.8314762 -0.5555605 0 0.9238803 -0.3826818 0 0.9238751 -0.3826942 0 -6.77484e-5 0 -1 3.38937e-5 0 -1 1.31278e-6 0 -1 4.57655e-5 0 -1 -5.72109e-6 0 -1 6.77507e-5 0 -1 -6.77794e-5 0 -1 -9.15321e-5 0 -1 -3.38949e-5 0 -1 1.35561e-4 0 -1 9.15311e-5 0 -1 -1.35563e-4 0 -1 -6.77507e-5 0 -1 5.72069e-6 0 -1 -4.57661e-5 0 -1 -2.67791e-4 0 -1 6.77828e-5 0 -1 6.7753e-5 0 -1 3.38926e-5 0 -1 9.5162e-6 0 1 -3.38742e-5 0 1 2.28833e-5 0 1 -1.69469e-5 0 1 -1.31278e-6 0 1 -1.14415e-5 0 1 -2.86048e-6 0 1 9.51629e-6 0 1 3.38753e-5 0 1 1.35511e-4 0 1 3.38926e-5 0 1 -1.35501e-4 0 1 -3.38914e-5 0 1 -6.77507e-5 0 1 3.38914e-5 0 1 2.86035e-6 0 1 1.14415e-5 0 1 6.7753e-5 0 1 -3.38937e-5 0 1 -2.28833e-5 0 1 1.69474e-5 0 1</float_array>
          <technique_common>
            <accessor source="#Mesh4-mesh-normals-array" count="353" stride="3">
              <param name="X" type="float" />
              <param name="Y" type="float" />
              <param name="Z" type="float" />
            </accessor>
          </technique_common>
        </source>
        <vertices id="Mesh4-mesh-vertices">
          <input semantic="POSITION" source="#Mesh4-mesh-positions" />
        </vertices>
        <triangles material="Material_1-material" count="690">
          <input semantic="VERTEX" source="#Mesh4-mesh-vertices" offset="0" />
          <input semantic="NORMAL" source="#Mesh4-mesh-normals" offset="1" />
          <p>0 0 1 0 2 0 2 0 3 0 0 0 4 1 5 1 6 1 7 1 6 1 5 1 8 1 6 1 7 1 5 1 9 1 7 1 8 1 10 1 6 1 5 1 11 1 9 1 7 1 9 1 12 1 6 1 10 1 13 1 11 1 5 1 14 1 9 1 11 1 15 1 9 1 16 1 12 1 10 1 17 1 13 1 14 1 18 1 11 1 16 2 19 2 12 2 18 1 14 1 20 1 12 1 19 1 21 1 22 1 20 1 14 1 22 1 23 1 20 1 24 1 22 1 14 1 25 1 23 1 22 1 26 1 22 1 24 1 23 1 25 1 27 1 24 1 28 1 26 1 29 1 27 1 25 1 27 1 30 1 23 1 31 1 26 1 28 1 29 1 25 1 32 1 26 3 31 3 33 3 34 1 33 1 31 1 35 1 26 1 33 1 34 1 36 1 33 1 34 1 31 1 37 1 33 1 38 1 35 1 33 1 36 1 39 1 40 0 41 0 42 0 42 0 41 0 43 0 40 0 42 0 44 0 45 4 46 4 47 4 49 4 45 4 47 4 46 5 45 5 48 5 50 4 48 4 45 4 53 6 50 6 45 6 56 4 50 4 53 4 56 7 59 7 50 7 56 8 62 8 59 8 62 9 56 9 65 9 65 4 68 4 62 4 62 4 68 4 71 4 74 4 71 4 68 4 68 4 77 4 74 4 80 4 74 4 77 4 80 10 83 10 74 10 80 11 86 11 83 11 89 4 86 4 80 4 92 12 86 12 89 12 92 13 95 13 86 13 95 14 92 14 87 14 100 4 95 4 87 4 104 4 100 4 87 4 108 4 104 4 87 4 112 4 108 4 87 4 87 15 109 15 112 15 105 4 109 4 87 4 87 16 101 16 105 16 101 17 87 17 98 17 96 18 98 18 87 18 93 4 96 4 87 4 90 19 93 19 87 19 90 4 87 4 84 4 46 4 84 4 87 4 81 4 84 4 46 4 81 20 46 20 78 20 75 4 78 4 46 4 46 21 72 21 75 21 72 22 46 22 69 22 66 23 69 23 46 23 46 24 63 24 66 24 60 4 63 4 46 4 60 4 46 4 57 4 54 4 57 4 46 4 54 4 46 4 51 4 92 4 85 4 87 4 92 4 103 4 85 4 103 4 107 4 85 4 107 4 111 4 85 4 111 4 110 4 85 4 106 4 85 4 110 4 106 4 102 4 85 4 99 25 85 25 102 25 99 17 97 17 85 17 85 26 97 26 94 26 94 4 91 4 85 4 91 4 88 4 85 4 88 4 82 4 85 4 82 4 47 4 85 4 47 27 82 27 79 27 79 20 76 20 47 20 76 4 73 4 47 4 49 4 47 4 52 4 55 4 52 4 47 4 58 4 55 4 47 4 61 4 58 4 47 4 47 28 64 28 61 28 64 29 47 29 67 29 70 22 67 22 47 22 70 4 47 4 73 4 48 4 51 4 46 4 113 30 114 30 115 30 115 30 116 30 113 30 116 30 115 30 117 30 116 30 118 30 113 30 117 30 119 30 116 30 120 30 118 30 116 30 117 30 121 30 119 30 122 30 121 30 117 30 121 30 123 30 119 30 121 31 122 31 124 31 119 32 123 32 125 32 126 30 124 30 122 30 127 33 125 33 123 33 126 30 122 30 128 30 123 30 129 30 127 30 126 30 128 30 130 30 129 30 131 30 127 30 128 30 132 30 130 30 133 30 126 30 130 30 129 30 134 30 131 30 127 30 131 30 135 30 126 30 133 30 136 30 137 30 134 30 129 30 131 30 138 30 135 30 139 30 134 30 137 30 139 30 140 30 134 30 140 30 141 30 134 30 142 0 143 0 144 0 145 0 144 0 143 0 144 0 146 0 142 0 147 34 145 34 143 34 146 35 148 35 142 35 147 0 143 0 149 0 148 0 150 0 142 0 151 0 149 0 143 0 150 0 152 0 142 0 143 36 153 36 151 36 154 0 142 0 152 0 153 0 143 0 155 0 142 0 154 0 156 0 157 0 155 0 143 0 156 0 158 0 142 0 157 0 143 0 159 0 142 0 158 0 160 0 159 0 161 0 157 0 162 0 160 0 158 0 163 0 161 0 159 0 162 0 164 0 160 0 165 0 163 0 159 0 166 0 160 0 164 0 159 37 167 37 165 37 160 38 166 38 168 38 169 0 167 0 159 0 168 0 170 0 160 0 169 39 159 39 171 39 170 40 172 40 160 40 173 0 171 0 159 0 172 41 174 41 160 41 173 42 159 42 175 42 174 43 176 43 160 43 177 0 175 0 159 0 160 44 176 44 177 44 177 0 159 0 160 0 178 0 179 0 180 0 181 0 179 0 178 0 178 0 180 0 182 0 179 0 181 0 183 0 180 45 184 45 182 45 183 0 185 0 179 0 186 0 184 0 180 0 185 0 187 0 179 0 180 46 188 46 186 46 187 0 189 0 179 0 188 0 180 0 190 0 189 47 191 47 179 47 192 40 190 40 180 40 179 48 191 48 193 48 194 0 192 0 180 0 193 0 195 0 179 0 196 43 194 43 180 43 193 0 197 0 195 0 198 0 196 0 180 0 199 34 195 34 197 34 180 0 200 0 198 0 199 0 201 0 195 0 202 0 198 0 200 0 203 0 195 0 201 0 204 49 202 49 200 49 203 0 205 0 195 0 204 0 200 0 206 0 195 0 205 0 207 0 208 50 206 50 200 50 207 0 209 0 195 0 200 51 210 51 208 51 209 0 200 0 195 0 210 0 200 0 211 0 200 0 209 0 212 0 213 0 211 0 200 0 212 0 213 0 200 0 214 52 215 52 216 52 216 53 217 53 214 53 218 4 219 4 220 4 220 4 221 4 218 4 222 54 223 54 224 54 223 54 222 54 225 54 222 54 226 54 225 54 226 54 227 54 225 54 228 4 229 4 230 4 230 4 231 4 228 4 231 4 232 4 228 4 233 4 228 4 232 4 234 0 235 0 236 0 236 0 237 0 234 0 238 54 239 54 240 54 239 54 241 54 240 54 241 54 239 54 242 54 242 54 239 54 243 54 244 0 245 0 246 0 246 0 247 0 244 0 248 55 249 55 250 55 250 55 251 55 248 55 252 56 253 56 254 56 254 57 255 57 252 57 256 0 257 0 258 0 258 0 259 0 256 0 260 58 261 58 262 58 262 59 263 59 260 59 264 0 265 0 266 0 266 0 267 0 264 0 268 54 269 54 270 54 270 54 271 54 268 54 272 0 273 0 274 0 274 0 275 0 272 0 276 55 277 55 278 55 278 55 279 55 276 55 280 4 281 4 282 4 282 4 283 4 280 4 284 55 285 55 286 55 286 55 287 55 284 55 288 55 289 55 290 55 290 55 291 55 288 55 292 54 293 54 294 54 294 54 295 54 292 54 296 0 297 0 298 0 298 0 299 0 296 0 300 54 301 54 302 54 302 54 303 54 300 54 304 4 305 4 306 4 306 4 307 4 304 4 308 4 309 4 310 4 310 4 311 4 308 4 312 0 313 0 314 0 314 0 315 0 312 0 316 55 317 55 318 55 317 55 319 55 318 55 320 55 319 55 317 55 321 54 322 54 323 54 322 54 324 54 323 54 323 54 325 54 321 54 326 4 327 4 328 4 328 4 329 4 326 4 330 0 331 0 332 0 332 0 333 0 330 0 334 55 335 55 336 55 335 55 337 55 336 55 338 55 337 55 335 55 339 54 340 54 341 54 340 54 342 54 341 54 341 54 343 54 339 54 344 0 345 0 346 0 347 0 344 0 346 0 344 0 347 0 348 0 349 1 350 1 351 1 351 1 352 1 349 1 352 1 351 1 353 1 353 1 354 1 352 1 355 54 356 54 357 54 357 54 358 54 355 54 358 54 359 54 355 54 360 54 355 54 359 54 361 30 362 30 363 30 363 30 362 30 364 30 365 30 364 30 362 30 365 30 362 30 366 30 367 0 368 0 369 0 369 0 370 0 367 0 371 1 372 1 373 1 373 1 374 1 371 1 375 4 376 4 377 4 377 4 378 4 375 4 379 55 380 55 381 55 382 55 379 55 381 55 379 55 382 55 383 55 384 55 385 55 386 55 386 55 387 55 384 55 388 30 389 30 390 30 390 30 389 30 391 30 391 30 389 30 392 30 390 30 391 30 393 30 394 30 395 30 396 30 396 30 397 30 394 30 398 30 399 30 400 30 400 30 401 30 398 30 402 55 403 55 404 55 404 55 405 55 402 55 406 60 407 61 408 62 408 62 410 63 406 60 412 64 406 60 410 63 414 65 412 64 410 63 416 66 412 64 414 65 414 65 418 67 416 66 420 68 416 66 418 67 422 69 420 68 418 67 424 70 420 68 422 69 422 69 426 71 424 70 428 72 424 70 426 71 430 73 428 72 426 71 432 74 428 72 430 73 430 73 434 75 432 74 436 76 432 74 434 75 438 77 436 76 434 75 440 78 436 76 438 77 438 77 442 79 440 78 440 78 442 79 444 80 446 81 440 78 444 80 448 82 446 81 444 80 444 80 450 83 448 82 452 84 448 82 450 83 454 85 452 84 450 83 456 86 452 84 454 85 454 85 458 87 456 86 460 88 456 86 458 87 462 89 460 88 458 87 464 90 460 88 462 89 462 89 466 91 464 90 468 92 464 90 466 91 469 93 468 92 466 91 467 94 468 92 469 93 469 93 465 95 467 94 463 96 467 94 465 95 461 97 463 96 465 95 459 98 463 96 461 97 461 97 457 99 459 98 455 100 459 98 457 99 453 101 455 100 457 99 451 102 455 100 453 101 453 101 449 103 451 102 447 104 451 102 449 103 445 105 447 104 449 103 443 106 447 104 445 105 445 105 441 107 443 106 439 108 443 106 441 107 437 109 439 108 441 107 433 110 439 108 437 109 437 109 435 111 433 110 433 110 435 111 429 112 431 113 433 110 429 112 427 114 431 113 429 112 429 112 425 115 427 114 423 116 427 114 425 115 421 117 423 116 425 115 419 118 423 116 421 117 421 117 417 119 419 118 415 120 419 118 417 119 413 121 415 120 417 119 411 122 415 120 413 121 413 121 409 123 411 122 407 61 411 122 409 123 408 62 407 61 409 123 470 124 471 125 472 126 472 126 474 127 470 124 476 128 470 124 474 127 478 129 476 128 474 127 480 130 476 128 478 129 478 129 482 131 480 130 484 132 480 130 482 131 486 133 484 132 482 131 488 134 484 132 486 133 486 133 490 135 488 134 492 136 488 134 490 135 494 137 492 136 490 135 496 138 492 136 494 137 494 137 498 139 496 138 500 140 496 138 498 139 502 141 500 140 498 139 504 142 500 140 502 141 502 141 506 143 504 142 504 142 506 143 508 144 510 145 504 142 508 144 512 146 510 145 508 144 508 144 514 147 512 146 516 148 512 146 514 147 518 149 516 148 514 147 520 150 516 148 518 149 518 149 522 151 520 150 524 152 520 150 522 151 526 153 524 152 522 151 528 154 524 152 526 153 526 153 530 155 528 154 532 156 528 154 530 155 533 157 532 156 530 155 531 158 532 156 533 157 533 157 529 159 531 158 527 160 531 158 529 159 525 161 527 160 529 159 523 162 527 160 525 161 525 161 521 163 523 162 519 164 523 162 521 163 517 165 519 164 521 163 515 166 519 164 517 165 517 165 513 167 515 166 511 168 515 166 513 167 509 169 511 168 513 167 507 170 511 168 509 169 509 169 505 171 507 170 503 172 507 170 505 171 501 173 503 172 505 171 497 174 503 172 501 173 501 173 499 175 497 174 497 174 499 175 493 176 495 177 497 174 493 176 491 178 495 177 493 176 493 176 489 179 491 178 487 180 491 178 489 179 485 181 487 180 489 179 483 182 487 180 485 181 485 181 481 183 483 182 479 184 483 182 481 183 477 185 479 184 481 183 475 186 479 184 477 185 477 185 473 187 475 186 471 125 475 186 473 187 472 126 471 125 473 187 534 188 535 189 536 190 536 190 538 191 534 188 534 188 538 191 540 192 542 193 534 188 540 192 544 194 542 193 540 192 540 192 546 195 544 194 548 196 544 194 546 195 550 197 548 196 546 195 552 198 548 196 550 197 550 197 554 199 552 198 556 200 552 198 554 199 558 201 556 200 554 199 560 202 556 200 558 201 558 201 562 203 560 202 564 204 560 202 562 203 566 205 564 204 562 203 568 206 564 204 566 205 566 205 570 207 568 206 572 208 568 206 570 207 574 209 572 208 570 207 576 210 572 208 574 209 574 209 578 211 576 210 580 212 576 210 578 211 582 213 580 212 578 211 584 214 580 212 582 213 582 213 586 215 584 214 588 216 584 214 586 215 590 217 588 216 586 215 592 218 588 216 590 217 590 217 594 219 592 218 596 220 592 218 594 219 597 221 596 220 594 219 593 222 596 220 597 221 597 221 595 223 593 222 593 222 595 223 589 224 591 225 593 222 589 224 587 226 591 225 589 224 589 224 585 227 587 226 583 228 587 226 585 227 581 229 583 228 585 227 579 230 583 228 581 229 581 229 577 231 579 230 575 232 579 230 577 231 573 233 575 232 577 231 571 234 575 232 573 233 573 233 569 235 571 234 567 157 571 234 569 235 565 236 567 157 569 235 563 237 567 157 565 236 565 236 561 238 563 237 559 239 563 237 561 238 557 240 559 239 561 238 555 241 559 239 557 240 557 240 553 242 555 241 551 243 555 241 553 242 549 244 551 243 553 242 547 245 551 243 549 244 549 244 545 246 547 245 543 247 547 245 545 246 541 169 543 247 545 246 539 248 543 247 541 169 541 169 537 249 539 248 535 189 539 248 537 249 536 190 535 189 537 249 598 250 599 251 600 252 600 252 602 253 598 250 598 250 602 253 604 254 606 255 598 250 604 254 608 256 606 255 604 254 604 254 610 257 608 256 612 116 608 256 610 257 614 258 612 116 610 257 616 259 612 116 614 258 614 258 618 260 616 259 620 261 616 259 618 260 622 262 620 261 618 260 624 263 620 261 622 262 622 262 626 264 624 263 628 265 624 263 626 264 630 266 628 265 626 264 632 267 628 265 630 266 630 266 634 268 632 267 636 269 632 267 634 268 638 270 636 269 634 268 640 271 636 269 638 270 638 270 642 272 640 271 644 273 640 271 642 272 646 274 644 273 642 272 648 275 644 273 646 274 646 274 650 276 648 275 652 277 648 275 650 276 654 278 652 277 650 276 656 279 652 277 654 278 654 278 658 280 656 279 660 281 656 279 658 280 661 282 660 281 658 280 657 283 660 281 661 282 661 282 659 284 657 283 657 283 659 284 653 285 655 286 657 283 653 285 651 287 655 286 653 285 653 285 649 288 651 287 647 289 651 287 649 288 645 290 647 289 649 288 643 291 647 289 645 290 645 290 641 292 643 291 639 293 643 291 641 292 637 294 639 293 641 292 635 295 639 293 637 294 637 294 633 296 635 295 631 297 635 295 633 296 629 298 631 297 633 296 627 299 631 297 629 298 629 298 625 300 627 299 623 301 627 299 625 300 621 302 623 301 625 300 619 303 623 301 621 302 621 302 617 304 619 303 615 305 619 303 617 304 613 306 615 305 617 304 611 307 615 305 613 306 613 306 609 308 611 307 607 309 611 307 609 308 605 310 607 309 609 308 603 311 607 309 605 310 605 310 601 312 603 311 599 251 603 311 601 312 600 252 599 251 601 312 662 4 663 4 664 4 664 4 663 4 665 4 664 4 666 4 662 4 665 4 663 4 667 4 664 313 665 313 668 313 663 4 669 4 667 4 665 4 667 4 670 4 669 4 663 4 671 4 669 4 672 4 667 4 670 314 673 314 665 314 671 4 663 4 674 4 669 315 671 315 675 315 669 4 676 4 672 4 667 4 672 4 677 4 663 316 678 316 674 316 679 4 671 4 674 4 675 317 671 317 680 317 669 4 675 4 681 4 676 4 682 4 672 4 672 318 683 318 677 318 684 4 667 4 677 4 678 319 685 319 674 319 686 4 671 4 679 4 687 4 679 4 674 4 680 4 688 4 675 4 689 4 681 4 675 4 690 320 669 320 681 320 677 321 691 321 684 321 679 4 692 4 686 4 681 322 693 322 690 322 694 323 695 323 696 323 696 4 695 4 697 4 696 324 698 324 694 324 697 4 695 4 699 4 696 325 697 325 700 325 695 4 701 4 699 4 697 326 699 326 702 326 701 4 695 4 703 4 701 4 704 4 699 4 702 4 705 4 697 4 703 4 695 4 706 4 701 315 703 315 707 315 701 327 708 327 704 327 699 4 704 4 709 4 695 4 710 4 706 4 711 4 703 4 706 4 707 4 703 4 712 4 701 4 707 4 713 4 708 328 714 329 704 329 704 330 715 330 709 330 716 4 699 4 709 4 710 4 717 4 706 4 718 4 703 4 711 4 719 4 711 4 706 4 712 321 720 321 707 321 721 4 713 4 707 4 722 4 701 4 713 4 709 4 723 4 716 4 711 331 724 331 718 331 713 4 725 4 722 4 726 0 727 0 728 0 727 0 729 0 728 0 726 0 728 0 730 0 730 332 728 332 731 332 732 0 726 0 730 0 728 333 733 333 731 333 734 334 730 334 731 334 726 0 732 0 735 0 736 0 732 0 730 0 731 335 737 335 734 335 735 0 732 0 738 0 726 336 735 336 739 336 740 0 732 0 736 0 736 337 730 337 741 337 732 0 742 0 738 0 743 0 735 0 738 0 739 338 735 338 744 338 726 339 739 339 745 339 746 0 732 0 740 0 740 340 736 340 747 340 741 0 748 0 736 0 742 0 749 0 738 0 750 0 735 0 743 0 751 341 743 341 738 341 744 342 752 342 739 342 753 343 745 343 739 343 754 0 726 0 745 0 740 0 755 0 746 0 743 344 756 344 750 344 745 0 757 0 754 0 758 0 759 0 760 0 759 0 761 0 760 0 758 0 760 0 762 0 762 332 760 332 763 332 764 0 758 0 762 0 760 345 765 345 763 345 766 0 762 0 763 0 758 0 764 0 767 0 768 0 764 0 762 0 763 346 769 346 766 346 767 0 764 0 770 0 758 336 767 336 771 336 772 0 764 0 768 0 768 347 762 347 773 347 764 0 774 0 770 0 775 0 767 0 770 0 771 348 767 348 776 348 758 339 771 339 777 339 778 0 764 0 772 0 772 349 768 349 779 349 773 350 780 350 768 350 774 0 781 0 770 0 782 351 767 351 775 351 783 0 775 0 770 0 776 0 784 0 771 0 785 0 777 0 771 0 786 0 758 0 777 0 772 0 787 0 778 0 775 352 788 352 782 352 777 0 789 0 786 0</p>
        </triangles>
      </mesh>
    </geometry>
    </library_geometries>
  <library_visual_scenes>
    <visual_scene id="Scene" name="Scene">
      <node id="Default_001" name="Default.001" type="NODE">
          <matrix sid="transform">1 0 0 0 0 1 0 0 0 0 1 0 0 0 0 1</matrix>
          <instance_geometry url="#Mesh4-mesh" name="Default.001">
            <bind_material>
              <technique_common>
                <instance_material symbol="Material_1-material" target="#Material_1-material" />
              </technique_common>
            </bind_material>
          </instance_geometry>
        </node>
        </visual_scene>
  </library_visual_scenes>
  <scene>
    <instance_visual_scene url="#Scene" />
  </scene>
</COLLADA>
