<?xml version='1.0' encoding='utf-8'?>
<COLLADA xmlns="http://www.collada.org/2005/11/COLLADASchema" version="1.4.1">
  <asset>
    <contributor>
      <author>Blender User</author>
      <authoring_tool>Blender 4.4.3 commit date:2025-04-29, commit time:14:09, hash:802179c51ccc</authoring_tool>
    </contributor>
    <created>2026-08-03T09:54:38</created>
    <modified>2026-08-03T09:54:38</modified>
    <unit name="millimeter" meter="0.001" />
    <up_axis>Z_UP</up_axis>
  </asset>
  <library_effects>
    <effect id="Material_1-effect">
      <profile_COMMON>
        <technique sid="common">
          <lambert>
            <emission>
              <color sid="emission">0 0 0 1</color>
            </emission>
            <diffuse>
              <color sid="diffuse">0.03310477 0.03310477 0.03310477 1</color>
            </diffuse>
            <index_of_refraction>
              <float sid="ior">1.5</float>
            </index_of_refraction>
          </lambert>
        </technique>
      </profile_COMMON>
    </effect>
    <effect id="Material_0-effect">
      <profile_COMMON>
        <technique sid="common">
          <lambert>
            <emission>
              <color sid="emission">0 0 0 1</color>
            </emission>
            <diffuse>
              <color sid="diffuse">0.07421356 0.07421356 0.07421356 1</color>
            </diffuse>
            <index_of_refraction>
              <float sid="ior">1.5</float>
            </index_of_refraction>
          </lambert>
        </technique>
      </profile_COMMON>
    </effect>
  </library_effects>
  <library_images />
  <library_materials>
    <material id="Material_1-material" name="Material_1">
      <instance_effect url="#Material_1-effect" />
    </material>
    <material id="Material_0-material" name="Material_0">
      <instance_effect url="#Material_0-effect" />
    </material>
  </library_materials>
  <library_geometries>
    <geometry id="Mesh3-mesh" name="Mesh3">
      <mesh>
        <source id="Mesh3-mesh-positions">
          <float_array id="Mesh3-mesh-positions-array" count="2370">-307.5 112.5 -200.504 0 112.5 -200.504 0 112.5 -193 -307.5 112.5 -193 -307.5 115.5 -193 -307.5 112.5 -193 0 112.5 -193 0 115.5 -193 -307.5 112.5 -200.504 -307.5 97.5 -200.504 0 97.5 -200.504 0 112.5 -200.504 -307.5 87.4923 -228 0 87.4923 -228 0 97.5 -200.504 -307.5 97.5 -200.504 -307.5 -104.491 -228 0 -104.491 -228 0 87.4923 -228 -307.5 87.4923 -228 -307.5 -114.5 -200.5 0 -114.5 -200.5 0 -104.491 -228 -307.5 -104.491 -228 -307.5 -114.5 -173 0 -114.5 -173 0 -114.5 -200.5 -307.5 -114.5 -200.5 -307.5 -143.5 -173 0 -143.5 -173 0 -143.5 -150 -312.5 -143.5 -150 -312.5 -143.5 -173 -312.5 -143.5 -150 -312.5 -115.5 -150 -312.5 -115.5 -173 -312.5 -143.5 -173 -312.5 -143.5 -150 0 -143.5 -150 0 -115.5 -150 -312.5 -115.5 -150 -312.5 -115.5 -173 -312.5 -115.5 -150 -307.5 -115.5 -173 0 -115.5 -150 0 -115.5 -173 0 -114.5 -173 -307.5 -114.5 -173 -307.5 -115.5 -173 0 -115.5 -173 -62.5 -162.5 -193 0 -162.5 -193 0 -168.5 -193 -62.5 -168.5 -193 -62.5 -144.5 -168.4 -62.5 -144.5 -173 -62.5 -168.5 -168.4 -62.5 -162.5 -193 -62.5 -144.5 -193 -62.5 -168.5 -193 -62.5 -168.5 -193 0 -168.5 -193 0 -168.5 -168.4 -62.5 -168.5 -168.4 0 -144.5 -168.4 0 -168.5 -168.4 0 -144.5 -173 0 -168.5 -193 0 -162.5 -193 0 -143.5 -173 0 -114.5 -200.5 0 -141.97 -205 0 -115.5 -173 0 -162.5 -205 0 -104.491 -228 0 -114.5 -173 0 -143.5 -167.25 0 -144.102 -229.375 0 -143.5 -161.5 0 -146.235 -253.75 0 -115.5 -150 0 133.5 -259.75 0 -143.5 -150 0 87.4923 -228 0 -150.5 -302.5 0 133.5 -217 0 133.5 -302.5 0 97.5 -200.504 0 180 -315 0 112.5 -200.504 0 -197 -315 0 180 -302.5 0 143.5 -193 0 -197 -302.5 0 115.5 -193 0 147.5 -217 0 115.5 -170 0 112.5 -193 0 147.5 -193 0 143.5 -170 0 -144.5 -168.4 -62.5 -144.5 -168.4 -62.5 -168.5 -168.4 0 -168.5 -168.4 -62.5 -144.5 -168.4 0 -144.5 -168.4 0 -144.5 -173 -62.5 -144.5 -173 -62.5 -144.5 -173 0 -144.5 -173 0 -143.5 -173 -307.5 -143.5 -173 -307.5 -144.5 -173 -62.5 -162.5 -193 0 -162.5 -205 0 -162.5 -193 -142.5 -162.5 -193 -307.5 -162.5 -205 -307.5 -162.5 -193 -142.5 -194.5 -193 -307.5 -162.5 -193 -142.5 -162.5 -193 -347.5 -194.5 -193 -347.5 -144.5 -193 -307.5 -144.5 -193 -307.5 -162.5 -205 -307.5 -141.97 -205 0 -141.97 -205 0 -162.5 -205 -307.5 -150.5 -302.5 0 -150.5 -302.5 0 -141.97 -205 -307.5 -141.97 -205 -307.5 -197 -315 0 -197 -315 0 -197 -302.5 -307.5 -197 -302.5 -307.5 -197 -302.5 0 -197 -302.5 -125 -192.5 -302.5 -121.976 -192.202 -302.5 -128.024 -192.202 -302.5 -119.068 -191.32 -302.5 -130.932 -191.32 -302.5 -116.389 -189.888 -302.5 -133.611 -189.888 -302.5 -114.04 -187.96 -302.5 -135.96 -187.96 -302.5 -112.112 -185.611 -302.5 -137.888 -185.611 -302.5 -110.68 -182.932 -302.5 -139.32 -182.932 -302.5 -109.798 -180.024 -302.5 -140.202 -180.024 -302.5 -109.5 -177 -302.5 -140.5 -177 -302.5 -109.798 -173.976 -302.5 -140.202 -173.976 -302.5 0 -150.5 -302.5 -307.5 -150.5 -302.5 -110.68 -171.068 -302.5 -139.32 -171.068 -302.5 -112.112 -168.389 -302.5 -137.888 -168.389 -302.5 -114.04 -166.04 -302.5 -135.96 -166.04 -302.5 -116.389 -164.112 -302.5 -133.611 -164.112 -302.5 -119.068 -162.68 -302.5 -130.932 -162.68 -302.5 -121.976 -161.798 -302.5 -128.024 -161.798 -302.5 -125 -161.5 -302.5 -307.5 180 -302.5 0 180 -302.5 0 180 -315 -307.5 180 -315 -125 175.5 -315 -307.5 180 -315 0 180 -315 -128.024 175.202 -315 -121.976 175.202 -315 -130.932 174.32 -315 -119.068 174.32 -315 -133.611 172.888 -315 -116.389 172.888 -315 -135.96 170.96 -315 -114.04 170.96 -315 -137.888 168.611 -315 -112.112 168.611 -315 -139.32 165.932 -315 -110.68 165.932 -315 -140.202 163.024 -315 -109.798 163.024 -315 -140.5 160 -315 -109.5 160 -315 -140.202 156.976 -315 -109.798 156.976 -315 -139.32 154.068 -315 -110.68 154.068 -315 -137.888 151.389 -315 -112.112 151.389 -315 -135.96 149.04 -315 -114.04 149.04 -315 -307.5 -197 -315 0 -197 -315 -135.96 -166.04 -315 -114.04 -166.04 -315 -133.611 -164.112 -315 -137.888 -168.389 -315 -116.389 -164.112 -315 -112.112 -168.389 -315 -133.611 147.112 -315 -139.32 -171.068 -315 -116.389 147.112 -315 -110.68 -171.068 -315 -130.932 145.68 -315 -140.202 -173.976 -315 -119.068 145.68 -315 -109.798 -173.976 -315 -130.932 -162.68 -315 -140.5 -177 -315 -119.068 -162.68 -315 -109.5 -177 -315 -128.024 -161.798 -315 -140.202 -180.024 -315 -121.976 -161.798 -315 -109.798 -180.024 -315 -128.024 144.798 -315 -139.32 -182.932 -315 -121.976 144.798 -315 -110.68 -182.932 -315 -125 144.5 -315 -137.888 -185.611 -315 -112.112 -185.611 -315 -125 -161.5 -315 -135.96 -187.96 -315 -114.04 -187.96 -315 -133.611 -189.888 -315 -116.389 -189.888 -315 -130.932 -191.32 -315 -119.068 -191.32 -315 -128.024 -192.202 -315 -121.976 -192.202 -315 -125 -192.5 -315 -307.5 133.5 -217 0 133.5 -217 0 133.5 -302.5 -307.5 133.5 -302.5 -109.798 156.976 -302.5 0 133.5 -302.5 0 180 -302.5 -110.68 154.068 -302.5 -109.5 160 -302.5 -112.112 151.389 -302.5 -109.798 163.024 -302.5 -114.04 149.04 -302.5 -110.68 165.932 -302.5 -116.389 147.112 -302.5 -112.112 168.611 -302.5 -119.068 145.68 -302.5 -114.04 170.96 -302.5 -121.976 144.798 -302.5 -116.389 172.888 -302.5 -125 144.5 -302.5 -119.068 174.32 -302.5 -307.5 133.5 -302.5 -121.976 175.202 -302.5 -128.024 144.798 -302.5 -125 175.5 -302.5 -130.932 145.68 -302.5 -307.5 180 -302.5 -133.611 147.112 -302.5 -128.024 175.202 -302.5 -135.96 149.04 -302.5 -130.932 174.32 -302.5 -137.888 151.389 -302.5 -133.611 172.888 -302.5 -139.32 154.068 -302.5 -135.96 170.96 -302.5 -140.202 156.976 -302.5 -137.888 168.611 -302.5 -139.32 165.932 -302.5 -140.5 160 -302.5 -140.202 163.024 -302.5 -307.5 133.5 -217 -307.5 147.5 -217 0 147.5 -217 0 133.5 -217 -307.5 147.5 -193 0 147.5 -193 0 147.5 -217 -307.5 147.5 -217 -307.5 115.5 -193 0 115.5 -193 0 115.5 -170 -312.5 115.5 -170 -312.5 115.5 -193 -312.5 115.5 -170 -312.5 143.5 -170 -312.5 143.5 -193 -312.5 115.5 -193 -312.5 115.5 -170 0 115.5 -170 0 143.5 -170 -312.5 143.5 -170 -307.5 143.5 -193 -312.5 143.5 -170 0 143.5 -170 -312.5 143.5 -193 0 143.5 -193 0 143.5 -193 0 147.5 -193 -307.5 147.5 -193 -307.5 143.5 -193 -115 -166.5 -153 -115 -166.5 -183 -142.5 -166.5 -183 -347.5 -166.5 -153 -347.5 -166.5 -183 -307.5 -144.5 -183 -142.5 -166.5 -183 -142.5 -144.5 -183 -347.5 -166.5 -183 -347.5 -144.5 -183 -115 -194.5 -153 -115 -166.5 -153 -347.5 -166.5 -153 -347.5 -194.5 -153 -347.5 -194.5 -153 -347.5 -194.5 -193 -142.5 -194.5 -183 -142.5 -194.5 -193 -115 -194.5 -153 -115 -194.5 -183 -115 -194.5 -153 -115 -194.5 -183 -115 -166.5 -183 -115 -166.5 -153 -115 -194.5 -183 -142.5 -194.5 -183 -142.5 -166.5 -183 -115 -166.5 -183 -347.5 -144.5 -193 -347.5 -166.5 -183 -347.5 -144.5 -183 -347.5 -194.5 -193 -347.5 -194.5 -153 -347.5 -166.5 -153 -142.5 -162.5 -193 -62.5 -162.5 -193 -62.5 -144.5 -193 -142.5 -144.5 -193 -142.5 -162.5 -193 -142.5 -144.5 -193 -142.5 -144.5 -183 -142.5 -166.5 -183 -142.5 -194.5 -193 -142.5 -194.5 -183 -307.5 -144.5 -183 -307.5 -144.5 -193 -347.5 -144.5 -193 -347.5 -144.5 -183 -142.5 -144.5 -183 -142.5 -144.5 -193 -62.5 -144.5 -193 -62.5 -144.5 -173 -307.5 -144.5 -173 -307.5 -144.5 -183 -312.5 -143.5 -173 -312.5 -115.5 -173 -307.5 -115.5 -173 -307.5 -143.5 -173 -312.5 115.5 -193 -312.5 143.5 -193 -307.5 143.5 -193 -307.5 115.5 -193 -307.5 -197 -315 -307.5 -197 -302.5 -307.5 -150.5 -302.5 -307.5 180 -315 -307.5 133.5 -302.5 -307.5 133.5 -259.75 -307.5 180 -302.5 -307.5 -146.235 -253.75 -307.5 87.4923 -228 -307.5 133.5 -217 -307.5 -104.491 -228 -307.5 97.5 -200.504 -307.5 -144.102 -229.375 -307.5 112.5 -200.504 -307.5 -141.97 -205 -307.5 147.5 -217 -307.5 -114.5 -200.5 -307.5 143.5 -193 -307.5 -144.5 -193 -307.5 115.5 -193 -307.5 147.5 -193 -307.5 -162.5 -205 -307.5 -144.5 -183 -307.5 112.5 -193 -307.5 -162.5 -193 -307.5 -114.5 -173 -307.5 -115.5 -173 -307.5 -143.5 -173 -307.5 -144.5 -173 -109.5 -177 -246.5 -109.798 -180.024 -246.5 -109.798 -180.024 -302.5 -110.68 -182.932 -302.5 -109.5 -177 -302.5 -110.68 -182.932 -246.5 -109.798 -173.976 -302.5 -112.112 -185.611 -302.5 -109.798 -173.976 -246.5 -112.112 -185.611 -246.5 -110.68 -171.068 -246.5 -114.04 -187.96 -302.5 -110.68 -171.068 -302.5 -114.04 -187.96 -246.5 -112.112 -168.389 -246.5 -116.389 -189.888 -302.5 -112.112 -168.389 -302.5 -116.389 -189.888 -246.5 -114.04 -166.04 -246.5 -119.068 -191.32 -302.5 -114.04 -166.04 -302.5 -119.068 -191.32 -246.5 -116.389 -164.112 -246.5 -121.976 -192.202 -302.5 -116.389 -164.112 -302.5 -121.976 -192.202 -246.5 -119.068 -162.68 -246.5 -125 -192.5 -302.5 -119.068 -162.68 -302.5 -125 -192.5 -246.5 -121.976 -161.798 -246.5 -128.024 -192.202 -302.5 -121.976 -161.798 -302.5 -128.024 -192.202 -246.5 -125 -161.5 -246.5 -130.932 -191.32 -302.5 -125 -161.5 -302.5 -130.932 -191.32 -246.5 -128.024 -161.798 -246.5 -133.611 -189.888 -302.5 -128.024 -161.798 -302.5 -133.611 -189.888 -246.5 -130.932 -162.68 -246.5 -135.96 -187.96 -302.5 -130.932 -162.68 -302.5 -135.96 -187.96 -246.5 -133.611 -164.112 -246.5 -137.888 -185.611 -302.5 -133.611 -164.112 -302.5 -137.888 -185.611 -246.5 -135.96 -166.04 -246.5 -139.32 -182.932 -302.5 -135.96 -166.04 -302.5 -139.32 -182.932 -246.5 -137.888 -168.389 -246.5 -140.202 -180.024 -302.5 -137.888 -168.389 -302.5 -140.202 -180.024 -246.5 -139.32 -171.068 -246.5 -140.5 -177 -246.5 -139.32 -171.068 -302.5 -140.5 -177 -302.5 -140.202 -173.976 -246.5 -140.202 -173.976 -302.5 -109.5 160 -246.5 -109.798 156.976 -246.5 -109.798 156.976 -302.5 -110.68 154.068 -302.5 -109.5 160 -302.5 -110.68 154.068 -246.5 -109.798 163.024 -302.5 -112.112 151.389 -302.5 -109.798 163.024 -246.5 -112.112 151.389 -246.5 -110.68 165.932 -246.5 -114.04 149.04 -302.5 -110.68 165.932 -302.5 -114.04 149.04 -246.5 -112.112 168.611 -246.5 -116.389 147.112 -302.5 -112.112 168.611 -302.5 -116.389 147.112 -246.5 -114.04 170.96 -246.5 -119.068 145.68 -302.5 -114.04 170.96 -302.5 -119.068 145.68 -246.5 -116.389 172.888 -246.5 -121.976 144.798 -302.5 -116.389 172.888 -302.5 -121.976 144.798 -246.5 -119.068 174.32 -246.5 -125 144.5 -302.5 -119.068 174.32 -302.5 -125 144.5 -246.5 -121.976 175.202 -246.5 -128.024 144.798 -302.5 -121.976 175.202 -302.5 -128.024 144.798 -246.5 -125 175.5 -246.5 -130.932 145.68 -302.5 -125 175.5 -302.5 -130.932 145.68 -246.5 -128.024 175.202 -246.5 -133.611 147.112 -302.5 -128.024 175.202 -302.5 -133.611 147.112 -246.5 -130.932 174.32 -246.5 -135.96 149.04 -302.5 -130.932 174.32 -302.5 -135.96 149.04 -246.5 -133.611 172.888 -246.5 -137.888 151.389 -302.5 -133.611 172.888 -302.5 -137.888 151.389 -246.5 -135.96 170.96 -246.5 -139.32 154.068 -302.5 -135.96 170.96 -302.5 -139.32 154.068 -246.5 -137.888 168.611 -246.5 -140.202 156.976 -302.5 -137.888 168.611 -302.5 -140.202 156.976 -246.5 -139.32 165.932 -246.5 -140.5 160 -246.5 -139.32 165.932 -302.5 -140.5 160 -302.5 -140.202 163.024 -246.5 -140.202 163.024 -302.5 -125 175.5 -315 -121.976 175.202 -315 -121.976 175.202 -357 -119.068 174.32 -357 -125 175.5 -357 -119.068 174.32 -315 -128.024 175.202 -315 -116.389 172.888 -357 -128.024 175.202 -357 -116.389 172.888 -315 -130.932 174.32 -315 -114.04 170.96 -357 -130.932 174.32 -357 -114.04 170.96 -315 -133.611 172.888 -315 -112.112 168.611 -357 -133.611 172.888 -357 -112.112 168.611 -315 -135.96 170.96 -315 -110.68 165.932 -357 -135.96 170.96 -357 -110.68 165.932 -315 -137.888 168.611 -315 -109.798 163.024 -357 -137.888 168.611 -357 -109.798 163.024 -315 -139.32 165.932 -315 -109.5 160 -315 -139.32 165.932 -357 -109.5 160 -357 -140.202 163.024 -315 -109.798 156.976 -357 -140.202 163.024 -357 -109.798 156.976 -315 -140.5 160 -315 -110.68 154.068 -357 -140.5 160 -357 -110.68 154.068 -315 -140.202 156.976 -357 -112.112 151.389 -357 -140.202 156.976 -315 -112.112 151.389 -315 -139.32 154.068 -315 -114.04 149.04 -357 -139.32 154.068 -357 -114.04 149.04 -315 -137.888 151.389 -315 -116.389 147.112 -357 -137.888 151.389 -357 -116.389 147.112 -315 -135.96 149.04 -315 -119.068 145.68 -357 -135.96 149.04 -357 -119.068 145.68 -315 -133.611 147.112 -315 -121.976 144.798 -357 -133.611 147.112 -357 -121.976 144.798 -315 -130.932 145.68 -315 -125 144.5 -357 -130.932 145.68 -357 -125 144.5 -315 -128.024 144.798 -315 -128.024 144.798 -357 -125 -161.5 -315 -121.976 -161.798 -315 -121.976 -161.798 -357 -119.068 -162.68 -357 -125 -161.5 -357 -119.068 -162.68 -315 -128.024 -161.798 -315 -116.389 -164.112 -357 -128.024 -161.798 -357 -116.389 -164.112 -315 -130.932 -162.68 -315 -114.04 -166.04 -357 -130.932 -162.68 -357 -114.04 -166.04 -315 -133.611 -164.112 -315 -112.112 -168.389 -357 -133.611 -164.112 -357 -112.112 -168.389 -315 -135.96 -166.04 -315 -110.68 -171.068 -357 -135.96 -166.04 -357 -110.68 -171.068 -315 -137.888 -168.389 -315 -109.798 -173.976 -357 -137.888 -168.389 -357 -109.798 -173.976 -315 -139.32 -171.068 -315 -109.5 -177 -315 -139.32 -171.068 -357 -109.5 -177 -357 -140.202 -173.976 -315 -109.798 -180.024 -357 -140.202 -173.976 -357 -109.798 -180.024 -315 -140.5 -177 -315 -110.68 -182.932 -357 -140.5 -177 -357 -110.68 -182.932 -315 -140.202 -180.024 -357 -112.112 -185.611 -357 -140.202 -180.024 -315 -112.112 -185.611 -315 -139.32 -182.932 -315 -114.04 -187.96 -357 -139.32 -182.932 -357 -114.04 -187.96 -315 -137.888 -185.611 -315 -116.389 -189.888 -357 -137.888 -185.611 -357 -116.389 -189.888 -315 -135.96 -187.96 -315 -119.068 -191.32 -357 -135.96 -187.96 -357 -119.068 -191.32 -315 -133.611 -189.888 -315 -121.976 -192.202 -357 -133.611 -189.888 -357 -121.976 -192.202 -315 -130.932 -191.32 -315 -125 -192.5 -357 -130.932 -191.32 -357 -125 -192.5 -315 -128.024 -192.202 -315 -128.024 -192.202 -357 -140.202 -173.976 -246.5 -140.5 -177 -246.5 -137.888 -168.389 -246.5 -133.611 -164.112 -246.5 -139.32 -171.068 -246.5 -125 -161.5 -246.5 -135.96 -166.04 -246.5 -109.5 -177 -246.5 -128.024 -161.798 -246.5 -125 -192.5 -246.5 -112.112 -168.389 -246.5 -130.932 -162.68 -246.5 -137.888 -185.611 -246.5 -116.389 -189.888 -246.5 -109.798 -173.976 -246.5 -116.389 -164.112 -246.5 -140.202 -180.024 -246.5 -133.611 -189.888 -246.5 -112.112 -185.611 -246.5 -121.976 -192.202 -246.5 -110.68 -171.068 -246.5 -121.976 -161.798 -246.5 -114.04 -166.04 -246.5 -139.32 -182.932 -246.5 -135.96 -187.96 -246.5 -128.024 -192.202 -246.5 -109.798 -180.024 -246.5 -114.04 -187.96 -246.5 -119.068 -191.32 -246.5 -119.068 -162.68 -246.5 -130.932 -191.32 -246.5 -110.68 -182.932 -246.5 -140.202 163.024 -246.5 -140.5 160 -246.5 -137.888 168.611 -246.5 -133.611 172.888 -246.5 -139.32 165.932 -246.5 -125 175.5 -246.5 -135.96 170.96 -246.5 -109.5 160 -246.5 -128.024 175.202 -246.5 -125 144.5 -246.5 -112.112 168.611 -246.5 -130.932 174.32 -246.5 -137.888 151.389 -246.5 -116.389 147.112 -246.5 -109.798 163.024 -246.5 -116.389 172.888 -246.5 -140.202 156.976 -246.5 -133.611 147.112 -246.5 -112.112 151.389 -246.5 -121.976 144.798 -246.5 -110.68 165.932 -246.5 -121.976 175.202 -246.5 -114.04 170.96 -246.5 -139.32 154.068 -246.5 -135.96 149.04 -246.5 -128.024 144.798 -246.5 -109.798 156.976 -246.5 -114.04 149.04 -246.5 -119.068 145.68 -246.5 -119.068 174.32 -246.5 -130.932 145.68 -246.5 -110.68 154.068 -246.5 -109.5 -177 -357 -109.798 -180.024 -357 -112.112 -185.611 -357 -110.68 -182.932 -357 -125 -192.5 -357 -116.389 -189.888 -357 -140.5 -177 -357 -114.04 -187.96 -357 -121.976 -192.202 -357 -125 -161.5 -357 -133.611 -189.888 -357 -119.068 -191.32 -357 -137.888 -168.389 -357 -116.389 -164.112 -357 -137.888 -185.611 -357 -128.024 -192.202 -357 -140.202 -173.976 -357 -133.611 -164.112 -357 -121.976 -161.798 -357 -112.112 -168.389 -357 -140.202 -180.024 -357 -135.96 -187.96 -357 -130.932 -191.32 -357 -139.32 -171.068 -357 -128.024 -161.798 -357 -135.96 -166.04 -357 -119.068 -162.68 -357 -114.04 -166.04 -357 -109.798 -173.976 -357 -139.32 -182.932 -357 -130.932 -162.68 -357 -110.68 -171.068 -357 -109.5 160 -357 -109.798 156.976 -357 -112.112 151.389 -357 -110.68 154.068 -357 -125 144.5 -357 -116.389 147.112 -357 -140.5 160 -357 -114.04 149.04 -357 -121.976 144.798 -357 -125 175.5 -357 -133.611 147.112 -357 -119.068 145.68 -357 -137.888 168.611 -357 -116.389 172.888 -357 -137.888 151.389 -357 -128.024 144.798 -357 -140.202 163.024 -357 -133.611 172.888 -357 -121.976 175.202 -357 -112.112 168.611 -357 -140.202 156.976 -357 -135.96 149.04 -357 -130.932 145.68 -357 -139.32 165.932 -357 -128.024 175.202 -357 -135.96 170.96 -357 -119.068 174.32 -357 -114.04 170.96 -357 -109.798 163.024 -357 -139.32 154.068 -357 -130.932 174.32 -357 -110.68 165.932 -357</float_array>
          <technique_common>
            <accessor source="#Mesh3-mesh-positions-array" count="790" stride="3">
              <param name="X" type="float" />
              <param name="Y" type="float" />
              <param name="Z" type="float" />
            </accessor>
          </technique_common>
        </source>
        <source id="Mesh3-mesh-normals">
          <float_array id="Mesh3-mesh-normals-array" count="1065">0 -1 0 0 0 1 0 -0.9396923 0.3420215 0 -0.9396921 0.3420218 0 0.9396924 0.3420206 0 0.9396923 0.342021 0 1 0 -1 0 0 0 0 -1 -1 1.38815e-5 0 1 0 0 1 -2.02901e-6 0 1 2.02901e-6 0 0 -0.9961947 0.08715635 0 -0.9961947 0.08715611 -2.00855e-6 0 1 1.41717e-6 0 1 -2.02554e-6 0 1 1.38756e-6 0 1 8.55745e-7 0 1 1.03709e-6 0 1 -7.16727e-7 0 1 3.47657e-6 0 1 -2.5541e-6 0 1 2.09002e-6 0 1 4.4908e-7 0 -1 -1.4172e-6 0 -1 -1.16157e-6 0 -1 1.03709e-6 0 -1 -2.43446e-7 0 -1 2.89091e-7 0 -1 -2.1374e-5 0 -1 1.50726e-5 0 -1 -1.21834e-5 0 -1 5.27107e-6 0 -1 1.21839e-5 0 -1 -1.50719e-5 0 -1 2.13718e-5 0 -1 -6.1022e-6 0 -1 -4.34853e-7 0 -1 7.24288e-7 0 -1 -1.92699e-6 0 -1 1.71148e-6 0 -1 -2.02554e-6 0 -1 2.00855e-6 0 -1 -1.41717e-6 0 -1 6.93787e-7 0 -1 -1.16159e-6 0 -1 1.03709e-6 0 -1 -2.43447e-7 0 -1 -1.01278e-6 0 -1 -3.08318e-6 0 -1 -4.09869e-7 0 1 -1.54159e-6 0 1 -2.02557e-6 0 1 -2.55415e-6 0 1 -1.57178e-6 0 1 1.4172e-6 0 1 -9.10601e-7 0 1 1.03709e-6 0 1 1 -2.47838e-7 0 0.9807733 -0.1951506 0 0.9807905 -0.195064 0 1 -2.43074e-7 0 0.9807822 0.1951063 0 0.9807818 0.1951079 0 0.9239225 0.3825799 0 0.9238907 0.3826568 0 0.8314993 0.5555258 0 0.8314576 0.5555883 0 0.7070835 0.7071301 0 0.7070383 0.7071753 0 0.5555977 0.8314514 0 0.5555556 0.8314794 0 0.3827402 0.923856 0 0.3827193 0.9238647 0 0.1950838 0.9807866 0 0.1950821 0.9807869 0 8.5313e-7 1 0 -8.48364e-7 1 0 -0.1950821 0.9807869 0 -0.1950585 0.9807916 0 -0.3827385 0.9238567 0 -0.3827162 0.923866 0 -0.555597 0.8314517 0 -0.555622 0.8314351 0 -0.7070336 0.7071799 0 -0.7070791 0.7071346 0 -0.8314604 0.5555841 0 -0.8315021 0.5555217 0 -0.9238893 0.3826599 0 -0.9239049 0.3826223 0 -0.9807823 0.1951053 0 -0.9807741 0.1951469 0 -1 -2.526e-7 0 -1 -2.43074e-7 0 -0.9807738 -0.1951479 0 -0.9807825 -0.1951047 0 -0.9239054 -0.3826212 0 -0.9238898 -0.3826588 0 -0.8315019 -0.555522 0 -0.8314602 -0.5555844 0 -0.7070793 -0.7071343 0 -0.707034 -0.7071796 0 -0.5556235 -0.831434 0 -0.5555988 -0.8314507 0 -0.3827141 -0.9238669 0 -0.3827363 -0.9238577 0 -0.1950587 -0.9807916 0 -0.1950823 -0.980787 0 -8.5313e-7 -1 0 8.48364e-7 -1 0 0.1950823 -0.980787 0 0.1950839 -0.9807866 0 0.3827171 -0.9238656 0 0.3827381 -0.923857 0 0.5555573 -0.8314784 0 0.5555994 -0.8314502 0 0.7070385 -0.7071751 0 0.7070838 -0.7071298 0 0.8314574 -0.5555887 0 0.831499 -0.5555262 0 0.9238911 -0.3826556 0 0.9239229 -0.3825788 0 1 2.47838e-7 0 0.9807733 -0.1951503 0 0.9807906 -0.1950638 0 1 2.43074e-7 0 0.9807821 0.1951065 0 0.9807817 0.1951081 0 0.9239229 0.3825788 0 0.9238911 0.3826556 0 0.831499 0.5555262 0 0.8314574 0.5555887 0 0.7070838 0.7071298 0 0.7070385 0.7071751 0 0.5555994 0.8314502 0 0.5555573 0.8314784 0 0.3827381 0.923857 0 0.3827171 0.9238656 0 0.1950839 0.9807866 0 0.1950823 0.980787 0 8.48364e-7 1 0 -8.5313e-7 1 0 -0.1950823 0.980787 0 -0.1950587 0.9807916 0 -0.3827363 0.9238577 0 -0.3827141 0.9238669 0 -0.5555988 0.8314507 0 -0.5556235 0.831434 0 -0.707034 0.7071796 0 -0.7070793 0.7071343 0 -0.8314602 0.5555844 0 -0.8315019 0.555522 0 -0.9238898 0.3826588 0 -0.9239054 0.3826212 0 -0.9807823 0.1951056 0 -0.980774 0.1951471 0 -1 2.526e-7 0 -1 2.43074e-7 0 -0.9807739 -0.1951477 0 -0.9807826 -0.1951045 0 -0.9239049 -0.3826223 0 -0.9238893 -0.3826599 0 -0.8315021 -0.5555217 0 -0.8314604 -0.5555841 0 -0.7070789 -0.7071346 0 -0.7070338 -0.7071798 0 -0.5556218 -0.8314352 0 -0.5555972 -0.8314517 0 -0.3827163 -0.923866 0 -0.3827384 -0.9238568 0 -0.1950586 -0.9807916 0 -0.1950821 -0.980787 0 -8.48364e-7 -1 0 8.5313e-7 -1 0 0.1950821 -0.9807869 0 0.1950837 -0.9807866 0 0.3827193 -0.9238647 0 0.3827401 -0.923856 0 0.5555555 -0.8314796 0 0.5555977 -0.8314512 0 0.7070382 -0.7071754 0 0.7070836 -0.70713 0 0.8314576 -0.5555883 0 0.8314993 -0.5555258 0 0.9238907 -0.3826568 0 0.9239225 -0.3825799 0 -4.90431e-6 1 0 0.1950729 0.9807888 0 0.1950935 0.9807847 0 4.91384e-6 1 0 -0.1950761 0.9807882 0 -0.1950721 0.9807889 0 -0.3827223 0.9238634 0 -0.3827239 0.9238628 0 -0.555601 0.8314491 0 -0.5556023 0.8314482 0 -0.7070485 0.7071651 0 -0.7070816 0.7071321 0 -0.8314672 0.5555739 0 -0.8314933 0.555535 0 -0.9239004 0.382633 0 -0.9238796 0.3826833 0 -0.9807904 0.1950644 0 -0.9807686 0.1951748 0 -1 1.90641e-7 0 -1 1.95413e-7 0 -0.9807794 -0.1951205 0 -0.9807798 -0.1951182 0 -0.9238793 -0.3826842 0 -0.9239 -0.3826342 0 -0.8314934 -0.5555347 0 -0.8314675 -0.5555735 0 -0.7070813 -0.7071322 0 -0.7070482 -0.7071654 0 -0.5556008 -0.8314492 0 -0.5555995 -0.8314501 0 -0.3827262 -0.9238619 0 -0.3827247 -0.9238625 0 -0.1950721 -0.9807889 0 -0.1950761 -0.9807881 0 4.90431e-6 -1 0 -4.89477e-6 -1 0 0.1950936 -0.9807847 0 0.195073 -0.9807888 0 0.3827136 -0.9238671 0 0.382725 -0.9238623 0 0.5555765 -0.8314654 0 0.5556008 -0.8314492 0 0.7070482 -0.7071654 0 0.7070813 -0.7071323 0 0.8314675 -0.5555736 0 0.8314648 -0.5555775 0 0.9239215 -0.3825823 0 0.9239024 -0.3826285 0 0.9807788 -0.1951236 0 0.9807904 -0.1950652 0 1 2.43073e-7 0 1 1.95413e-7 0 0.9807901 0.1950661 0 0.9807789 0.195123 0 0.9239029 0.3826274 0 0.9239218 0.3825813 0 0.8314646 0.5555778 0 0.8314673 0.5555738 0 0.7070816 0.7071321 0 0.7070485 0.7071651 0 0.5556023 0.8314482 0 0.5555781 0.8314644 0 0.3827226 0.9238633 0 0.3827112 0.923868 0 -4.89477e-6 1 0 0.195073 0.9807888 0 0.1950936 0.9807847 0 4.90431e-6 1 0 -0.1950761 0.9807881 0 -0.3827247 0.9238625 0 -0.3827262 0.9238619 0 -0.5555995 0.8314501 0 -0.5556008 0.8314492 0 -0.7070482 0.7071654 0 -0.7070813 0.7071322 0 -0.8314675 0.5555735 0 -0.8314934 0.5555347 0 -0.9239 0.3826341 0 -0.9238792 0.3826843 0 -0.9807905 0.1950642 0 -0.9808361 0.1948348 0 -1 -1.90641e-7 0 -1 -1.95413e-7 0 -0.9807792 -0.1951208 0 -0.9807797 -0.1951184 0 -0.9238797 -0.3826832 0 -0.9239004 -0.3826332 0 -0.8314933 -0.555535 0 -0.8314672 -0.5555739 0 -0.7070816 -0.7071321 0 -0.7070485 -0.7071651 0 -0.5556023 -0.8314482 0 -0.555601 -0.8314491 0 -0.3827239 -0.9238628 0 -0.3827223 -0.9238634 0 -0.1950761 -0.9807882 0 4.91384e-6 -1 0 -4.90431e-6 -1 0 0.1950935 -0.9807847 0 0.1950729 -0.9807888 0 0.3827112 -0.923868 0 0.3827226 -0.9238633 0 0.5555781 -0.8314644 0 0.5556023 -0.8314482 0 0.7070485 -0.7071651 0 0.7070816 -0.7071321 0 0.8314673 -0.5555738 0 0.8314646 -0.5555778 0 0.923922 -0.3825812 0 0.9239028 -0.3826274 0 0.9807786 -0.1951238 0 0.9807903 -0.1950653 0 1 -2.43073e-7 0 1 -1.95413e-7 0 0.9807901 0.1950659 0 0.9807789 0.1951228 0 0.9239024 0.3826284 0 0.9239215 0.3825824 0 0.8314648 0.5555775 0 0.8314675 0.5555736 0 0.7070813 0.7071323 0 0.7070482 0.7071654 0 0.5556008 0.8314492 0 0.5555765 0.8314654 0 0.382725 0.9238623 0 0.3827136 0.9238671 0 9.51443e-6 0 1 -1.31282e-6 0 1 1.14406e-5 0 1 9.51697e-6 0 1 2.86035e-6 0 1 -2.28833e-5 0 1 -6.77897e-5 0 1 6.77484e-5 0 1 -3.38765e-5 0 1 1.69377e-5 0 1 3.3873e-5 0 1 -1.35584e-4 0 1 2.00004e-4 0 1 1.99963e-4 0 1 -2.86022e-6 0 1 3.38696e-5 0 1 -1.14414e-5 0 1 1.35492e-4 0 1 -2.00055e-4 0 1 -2.00096e-4 0 1 -3.38926e-5 0 1 2.28812e-5 0 1 -3.38753e-5 0 1 -1.69348e-5 0 1 -4.57912e-5 0 -1 6.77713e-5 0 -1 6.77484e-5 0 -1 1.31285e-6 0 -1 5.7203e-6 0 -1 9.1552e-5 0 -1 -6.77897e-5 0 -1 -3.38753e-5 0 -1 -1.35671e-4 0 -1 3.38696e-5 0 -1 6.77461e-5 0 -1 4.5776e-5 0 -1 -5.72082e-6 0 -1 -6.77851e-5 0 -1 -6.78368e-5 0 -1 -9.15824e-5 0 -1 1.35543e-4 0 -1</float_array>
          <technique_common>
            <accessor source="#Mesh3-mesh-normals-array" count="355" stride="3">
              <param name="X" type="float" />
              <param name="Y" type="float" />
              <param name="Z" type="float" />
            </accessor>
          </technique_common>
        </source>
        <vertices id="Mesh3-mesh-vertices">
          <input semantic="POSITION" source="#Mesh3-mesh-positions" />
        </vertices>
        <triangles material="Material_1-material" count="690">
          <input semantic="VERTEX" source="#Mesh3-mesh-vertices" offset="0" />
          <input semantic="NORMAL" source="#Mesh3-mesh-normals" offset="1" />
          <p>0 0 1 0 2 0 2 0 3 0 0 0 4 1 5 1 6 1 6 1 7 1 4 1 8 1 9 1 10 1 10 1 11 1 8 1 12 2 13 2 14 2 14 3 15 3 12 3 16 1 17 1 18 1 18 1 19 1 16 1 20 4 21 4 22 4 22 5 23 5 20 5 24 6 25 6 26 6 26 6 27 6 24 6 28 0 29 0 30 0 30 0 31 0 28 0 31 0 32 0 28 0 33 7 34 7 35 7 35 7 36 7 33 7 37 1 38 1 39 1 39 1 40 1 37 1 41 6 42 6 43 6 43 6 42 6 44 6 44 6 45 6 43 6 46 1 47 1 48 1 48 1 49 1 46 1 50 8 51 8 52 8 52 8 53 8 50 8 54 7 55 7 56 7 55 9 57 9 56 9 58 7 57 7 55 7 56 7 57 7 59 7 60 0 61 0 62 0 62 0 63 0 60 0 64 10 65 10 66 10 66 10 65 10 67 10 66 10 67 10 68 10 66 10 68 10 69 10 69 10 68 10 70 10 68 10 71 10 70 10 70 10 72 10 69 10 73 10 71 10 68 10 74 10 70 10 71 10 72 10 70 10 75 10 69 10 72 10 76 10 71 11 77 11 74 11 72 10 78 10 76 10 79 12 74 12 77 12 80 10 78 10 72 10 81 10 74 10 79 10 80 10 82 10 78 10 81 10 83 10 74 10 81 10 79 10 84 10 83 10 81 10 85 10 84 10 86 10 81 10 85 10 87 10 83 10 86 10 84 10 88 10 87 10 85 10 89 10 90 10 88 10 84 10 91 10 86 10 88 10 92 10 89 10 85 10 84 10 93 10 90 10 89 10 92 10 94 10 92 10 85 10 95 10 92 10 96 10 94 10 97 10 89 10 94 10 95 10 98 10 92 10 99 10 96 10 92 10 100 1 101 1 102 1 102 1 103 1 100 1 104 6 105 6 106 6 106 6 107 6 104 6 108 1 109 1 110 1 110 1 111 1 108 1 108 1 111 1 112 1 113 0 114 0 115 0 113 0 116 0 114 0 114 0 116 0 117 0 116 0 118 0 117 0 119 8 120 8 121 8 120 8 119 8 122 8 123 8 120 8 122 8 120 8 123 8 124 8 125 8 126 8 127 8 127 8 128 8 125 8 129 13 130 13 131 13 131 14 132 14 129 14 133 0 134 0 135 0 135 0 136 0 133 0 137 1 138 1 139 1 140 1 139 1 138 1 139 1 141 1 137 1 142 15 140 15 138 15 141 16 143 16 137 16 142 1 138 1 144 1 143 1 145 1 137 1 146 17 144 17 138 17 145 18 147 18 137 18 138 19 148 19 146 19 149 1 137 1 147 1 148 1 138 1 150 1 137 20 149 20 151 20 152 1 150 1 138 1 151 1 153 1 137 1 154 1 152 1 138 1 137 21 153 21 155 21 138 1 156 1 154 1 157 1 137 1 155 1 156 1 138 1 158 1 157 1 159 1 137 1 160 1 156 1 158 1 161 1 159 1 157 1 158 1 162 1 160 1 159 1 161 1 163 1 164 1 162 1 158 1 163 1 165 1 159 1 164 1 158 1 166 1 165 1 167 1 159 1 168 1 166 1 158 1 167 1 169 1 159 1 168 22 158 22 170 22 169 23 171 23 159 23 172 1 170 1 158 1 159 24 171 24 172 24 172 1 158 1 159 1 173 6 174 6 175 6 175 6 176 6 173 6 177 8 178 8 179 8 181 8 177 8 179 8 178 25 177 25 180 25 180 26 182 26 178 26 182 8 184 8 178 8 186 8 178 8 184 8 186 27 188 27 178 27 190 28 178 28 188 28 178 29 190 29 192 29 192 8 194 8 178 8 194 8 196 8 178 8 196 8 198 8 178 8 200 8 178 8 198 8 200 8 202 8 178 8 202 8 204 8 178 8 204 30 202 30 206 30 208 8 206 8 202 8 212 31 208 31 202 31 216 8 208 8 212 8 216 32 220 32 208 32 216 33 224 33 220 33 224 34 216 34 228 34 228 8 232 8 224 8 224 8 232 8 235 8 226 8 235 8 232 8 232 8 230 8 226 8 218 8 226 8 230 8 218 35 222 35 226 35 218 36 210 36 222 36 214 8 210 8 218 8 203 37 210 37 214 37 203 38 207 38 210 38 207 39 203 39 205 39 211 8 207 8 205 8 215 8 211 8 205 8 219 8 215 8 205 8 223 8 219 8 205 8 205 40 227 40 223 40 231 8 227 8 205 8 205 41 234 41 231 41 234 42 205 42 237 42 239 43 237 43 205 43 203 8 179 8 205 8 241 8 239 8 205 8 243 44 241 44 205 44 243 8 205 8 244 8 204 8 244 8 205 8 242 8 244 8 204 8 242 45 204 45 240 45 238 8 240 8 204 8 204 46 236 46 238 46 236 47 204 47 233 47 229 48 233 48 204 48 204 49 225 49 229 49 221 8 225 8 204 8 221 8 204 8 217 8 213 8 217 8 204 8 213 8 204 8 209 8 206 8 209 8 204 8 203 8 201 8 179 8 201 8 199 8 179 8 183 8 181 8 179 8 185 8 183 8 179 8 179 50 187 50 185 50 189 42 187 42 179 42 189 51 179 51 191 51 193 8 191 8 179 8 193 8 179 8 195 8 197 8 195 8 179 8 199 8 197 8 179 8 245 6 246 6 247 6 247 6 248 6 245 6 249 1 250 1 251 1 249 1 252 1 250 1 251 1 253 1 249 1 254 1 250 1 252 1 255 1 253 1 251 1 250 52 254 52 256 52 257 1 255 1 251 1 256 1 258 1 250 1 251 53 259 53 257 53 260 1 250 1 258 1 261 1 259 1 251 1 260 22 262 22 250 22 261 54 251 54 263 54 262 1 264 1 250 1 265 1 263 1 251 1 266 1 250 1 264 1 265 15 251 15 267 15 264 1 268 1 266 1 269 1 267 1 251 1 268 55 270 55 266 55 269 1 251 1 271 1 270 1 272 1 266 1 271 56 273 56 269 56 272 1 274 1 266 1 275 57 273 57 271 57 276 1 266 1 274 1 277 58 275 58 271 58 266 1 276 1 278 1 279 18 277 18 271 18 278 1 280 1 266 1 281 1 279 1 271 1 266 1 280 1 271 1 271 59 282 59 281 59 283 1 271 1 280 1 282 1 271 1 284 1 283 1 284 1 271 1 285 8 286 8 287 8 287 8 288 8 285 8 289 6 290 6 291 6 291 6 292 6 289 6 293 0 294 0 295 0 295 0 296 0 293 0 296 0 297 0 293 0 298 7 299 7 300 7 300 7 301 7 298 7 302 1 303 1 304 1 304 1 305 1 302 1 306 6 307 6 308 6 307 6 306 6 309 6 308 6 310 6 306 6 311 1 312 1 313 1 313 1 314 1 311 1 315 6 316 6 317 6 318 6 315 6 317 6 317 6 319 6 318 6 320 1 321 1 322 1 321 1 320 1 323 1 324 1 323 1 320 1 325 1 326 1 327 1 327 1 328 1 325 1 329 0 330 0 331 0 331 0 330 0 332 0 331 0 333 0 329 0 331 0 334 0 333 0 335 10 336 10 337 10 337 10 338 10 335 10 339 8 340 8 341 8 341 8 342 8 339 8 343 7 344 7 345 7 344 7 343 7 346 7 347 7 344 7 346 7 344 7 347 7 348 7 349 1 350 1 351 1 351 1 352 1 349 1 353 10 354 10 355 10 355 10 356 10 353 10 357 10 353 10 356 10 356 10 358 10 357 10 359 6 360 6 361 6 361 6 362 6 359 6 363 0 364 0 365 0 363 0 365 0 366 0 366 0 367 0 363 0 363 0 367 0 368 0 369 8 370 8 371 8 371 8 372 8 369 8 373 8 374 8 375 8 375 8 376 8 373 8 377 7 378 7 379 7 379 7 380 7 377 7 380 7 379 7 381 7 381 7 379 7 382 7 380 7 381 7 383 7 379 7 384 7 382 7 385 7 382 7 384 7 386 7 382 7 385 7 384 7 387 7 385 7 386 7 385 7 388 7 389 7 387 7 384 7 390 7 386 7 388 7 387 7 389 7 391 7 390 7 392 7 386 7 393 7 387 7 391 7 392 7 390 7 394 7 393 7 391 7 395 7 396 7 394 7 390 7 392 7 394 7 397 7 395 7 391 7 398 7 399 7 393 7 395 7 396 7 390 7 400 7 398 7 401 7 395 7 399 7 402 7 393 7 399 7 403 7 402 7 403 7 399 7 404 7 399 7 405 7 404 7 406 60 407 61 408 62 408 62 410 63 406 60 406 60 410 63 412 64 414 65 406 60 412 64 416 66 414 65 412 64 412 64 418 67 416 66 420 68 416 66 418 67 422 69 420 68 418 67 424 70 420 68 422 69 422 69 426 71 424 70 428 72 424 70 426 71 430 73 428 72 426 71 432 74 428 72 430 73 430 73 434 75 432 74 436 76 432 74 434 75 438 77 436 76 434 75 440 78 436 76 438 77 438 77 442 79 440 78 444 80 440 78 442 79 446 81 444 80 442 79 448 82 444 80 446 81 446 81 450 83 448 82 452 84 448 82 450 83 454 85 452 84 450 83 456 86 452 84 454 85 454 85 458 87 456 86 460 88 456 86 458 87 462 89 460 88 458 87 464 90 460 88 462 89 462 89 466 91 464 90 468 92 464 90 466 91 469 93 468 92 466 91 465 94 468 92 469 93 469 93 467 95 465 94 465 94 467 95 461 96 463 97 465 94 461 96 459 98 463 97 461 96 461 96 457 99 459 98 455 100 459 98 457 99 453 101 455 100 457 99 451 102 455 100 453 101 453 101 449 103 451 102 447 104 451 102 449 103 445 105 447 104 449 103 443 106 447 104 445 105 445 105 441 107 443 106 439 108 443 106 441 107 437 109 439 108 441 107 435 110 439 108 437 109 437 109 433 111 435 110 431 112 435 110 433 111 429 113 431 112 433 111 427 114 431 112 429 113 429 113 425 115 427 114 423 116 427 114 425 115 421 117 423 116 425 115 419 118 423 116 421 117 421 117 417 119 419 118 415 120 419 118 417 119 413 121 415 120 417 119 411 122 415 120 413 121 413 121 409 123 411 122 407 61 411 122 409 123 408 62 407 61 409 123 470 124 471 125 472 126 472 126 474 127 470 124 470 124 474 127 476 128 478 129 470 124 476 128 480 130 478 129 476 128 476 128 482 131 480 130 484 132 480 130 482 131 486 133 484 132 482 131 488 134 484 132 486 133 486 133 490 135 488 134 492 136 488 134 490 135 494 137 492 136 490 135 496 138 492 136 494 137 494 137 498 139 496 138 500 140 496 138 498 139 502 141 500 140 498 139 504 142 500 140 502 141 502 141 506 143 504 142 508 144 504 142 506 143 510 145 508 144 506 143 512 146 508 144 510 145 510 145 514 147 512 146 516 148 512 146 514 147 518 149 516 148 514 147 520 150 516 148 518 149 518 149 522 151 520 150 524 152 520 150 522 151 526 153 524 152 522 151 528 154 524 152 526 153 526 153 530 155 528 154 532 156 528 154 530 155 533 157 532 156 530 155 529 158 532 156 533 157 533 157 531 159 529 158 529 158 531 159 525 160 527 161 529 158 525 160 523 162 527 161 525 160 525 160 521 163 523 162 519 164 523 162 521 163 517 165 519 164 521 163 515 166 519 164 517 165 517 165 513 167 515 166 511 168 515 166 513 167 509 169 511 168 513 167 507 170 511 168 509 169 509 169 505 171 507 170 503 172 507 170 505 171 501 173 503 172 505 171 499 174 503 172 501 173 501 173 497 175 499 174 495 176 499 174 497 175 493 177 495 176 497 175 491 178 495 176 493 177 493 177 489 179 491 178 487 180 491 178 489 179 485 181 487 180 489 179 483 182 487 180 485 181 485 181 481 183 483 182 479 184 483 182 481 183 477 185 479 184 481 183 475 186 479 184 477 185 477 185 473 187 475 186 471 125 475 186 473 187 472 126 471 125 473 187 534 188 535 189 536 190 536 190 538 191 534 188 540 192 534 188 538 191 542 193 540 192 538 191 544 194 540 192 542 193 542 193 546 195 544 194 548 196 544 194 546 195 550 197 548 196 546 195 552 198 548 196 550 197 550 197 554 199 552 198 556 200 552 198 554 199 558 201 556 200 554 199 560 202 556 200 558 201 558 201 562 203 560 202 564 204 560 202 562 203 566 205 564 204 562 203 568 206 564 204 566 205 566 205 570 207 568 206 568 206 570 207 572 208 574 209 568 206 572 208 576 210 574 209 572 208 572 208 578 211 576 210 580 212 576 210 578 211 582 213 580 212 578 211 584 214 580 212 582 213 582 213 586 215 584 214 588 216 584 214 586 215 590 217 588 216 586 215 592 218 588 216 590 217 590 217 594 219 592 218 596 220 592 218 594 219 597 221 596 220 594 219 595 222 596 220 597 221 597 221 593 223 595 222 591 224 595 222 593 223 589 225 591 224 593 223 587 226 591 224 589 225 589 225 585 227 587 226 583 228 587 226 585 227 581 229 583 228 585 227 579 230 583 228 581 229 581 229 577 231 579 230 575 232 579 230 577 231 573 233 575 232 577 231 571 234 575 232 573 233 573 233 569 235 571 234 567 236 571 234 569 235 565 237 567 236 569 235 561 238 567 236 565 237 565 237 563 239 561 238 561 238 563 239 557 240 559 241 561 238 557 240 555 242 559 241 557 240 557 240 553 243 555 242 551 244 555 242 553 243 549 245 551 244 553 243 547 246 551 244 549 245 549 245 545 247 547 246 543 248 547 246 545 247 541 249 543 248 545 247 539 250 543 248 541 249 541 249 537 251 539 250 535 189 539 250 537 251 536 190 535 189 537 251 598 252 599 253 600 254 600 254 602 255 598 252 604 256 598 252 602 255 606 193 604 256 602 255 608 257 604 256 606 193 606 193 610 258 608 257 612 259 608 257 610 258 614 260 612 259 610 258 616 261 612 259 614 260 614 260 618 262 616 261 620 263 616 261 618 262 622 264 620 263 618 262 624 265 620 263 622 264 622 264 626 266 624 265 628 267 624 265 626 266 630 268 628 267 626 266 632 269 628 267 630 268 630 268 634 270 632 269 632 269 634 270 636 271 638 272 632 269 636 271 640 273 638 272 636 271 636 271 642 274 640 273 644 275 640 273 642 274 646 276 644 275 642 274 648 277 644 275 646 276 646 276 650 278 648 277 652 279 648 277 650 278 654 280 652 279 650 278 656 281 652 279 654 280 654 280 658 282 656 281 660 220 656 281 658 282 661 283 660 220 658 282 659 284 660 220 661 283 661 283 657 285 659 284 655 286 659 284 657 285 653 287 655 286 657 285 651 288 655 286 653 287 653 287 649 289 651 288 647 290 651 288 649 289 645 291 647 290 649 289 643 292 647 290 645 291 645 291 641 293 643 292 639 294 643 292 641 293 637 295 639 294 641 293 635 296 639 294 637 295 637 295 633 297 635 296 631 298 635 296 633 297 629 299 631 298 633 297 625 300 631 298 629 299 629 299 627 301 625 300 625 300 627 301 621 302 623 303 625 300 621 302 619 304 623 303 621 302 621 302 617 305 619 304 615 306 619 304 617 305 613 307 615 306 617 305 611 308 615 306 613 307 613 307 609 309 611 308 607 310 611 308 609 309 605 311 607 310 609 309 603 312 607 310 605 311 605 311 601 313 603 312 599 253 603 312 601 313 600 254 599 253 601 313 662 1 663 1 664 1 663 314 665 314 664 314 664 1 666 1 662 1 663 315 667 315 665 315 668 1 664 1 665 1 663 1 669 1 667 1 665 316 667 316 670 316 669 1 663 1 671 1 667 1 669 1 672 1 670 1 673 1 665 1 663 1 674 1 671 1 675 1 669 1 671 1 669 1 676 1 672 1 677 1 667 1 672 1 663 1 678 1 674 1 671 317 674 317 679 317 680 1 669 1 675 1 675 318 671 318 681 318 676 1 682 1 672 1 683 319 667 319 677 319 684 1 677 1 672 1 678 1 685 1 674 1 674 320 686 320 679 320 687 1 671 1 679 1 688 1 669 1 680 1 680 321 675 321 689 321 681 322 690 322 675 322 677 323 691 323 683 323 679 324 692 324 687 324 680 1 693 1 688 1 694 1 695 1 696 1 695 314 697 314 696 314 696 1 698 1 694 1 695 315 699 315 697 315 700 325 696 326 697 327 695 1 701 1 699 1 697 328 699 328 702 328 701 1 695 1 703 1 699 1 701 1 704 1 702 329 705 329 697 329 695 1 706 1 703 1 707 1 701 1 703 1 701 1 708 1 704 1 709 1 699 1 704 1 695 1 710 1 706 1 703 317 706 317 711 317 712 1 701 1 707 1 707 330 703 330 713 330 708 1 714 1 704 1 715 1 699 1 709 1 716 331 709 332 704 333 710 1 717 1 706 1 706 334 718 334 711 334 719 335 703 335 711 335 720 1 701 1 712 1 712 324 707 324 721 324 713 1 722 1 707 1 709 336 723 336 715 336 711 337 724 337 719 337 712 1 725 1 720 1 726 338 727 338 728 338 727 339 729 339 728 339 726 8 728 8 730 8 730 8 728 8 731 8 732 8 726 8 730 8 728 340 733 340 731 340 734 8 730 8 731 8 726 8 732 8 735 8 736 8 732 8 730 8 731 8 737 8 734 8 735 8 732 8 738 8 726 341 735 341 739 341 740 8 732 8 736 8 736 342 730 342 741 342 732 8 742 8 738 8 743 8 735 8 738 8 739 8 735 8 744 8 726 8 739 8 745 8 746 343 732 343 740 343 740 344 736 344 747 344 741 8 748 8 736 8 742 8 749 8 738 8 750 8 735 8 743 8 751 8 743 8 738 8 744 345 752 345 739 345 753 8 745 8 739 8 754 8 726 8 745 8 740 346 755 346 746 346 743 347 756 347 750 347 745 8 757 8 754 8 758 8 759 8 760 8 759 8 761 8 760 8 758 8 760 8 762 8 762 8 760 8 763 8 764 8 758 8 762 8 760 348 765 348 763 348 766 8 762 8 763 8 758 8 764 8 767 8 768 8 764 8 762 8 763 345 769 345 766 345 767 8 764 8 770 8 758 341 767 341 771 341 772 8 764 8 768 8 768 8 762 8 773 8 764 349 774 349 770 349 775 8 767 8 770 8 771 350 767 350 776 350 758 8 771 8 777 8 778 8 764 8 772 8 772 351 768 351 779 351 773 347 780 347 768 347 774 352 781 352 770 352 782 8 767 8 775 8 783 8 775 8 770 8 776 8 784 8 771 8 785 8 777 8 771 8 786 353 758 353 777 353 772 8 787 8 778 8 775 8 788 8 782 8 777 354 789 354 786 354</p>
        </triangles>
      </mesh>
    </geometry>
    </library_geometries>
  <library_visual_scenes>
    <visual_scene id="Scene" name="Scene">
      <node id="Default" name="Default" type="NODE">
          <matrix sid="transform">1 0 0 0 0 1 0 0 0 0 1 0 0 0 0 1</matrix>
          <instance_geometry url="#Mesh3-mesh" name="Default">
            <bind_material>
              <technique_common>
                <instance_material symbol="Material_1-material" target="#Material_1-material" />
              </technique_common>
            </bind_material>
          </instance_geometry>
        </node>
        </visual_scene>
  </library_visual_scenes>
  <scene>
    <instance_visual_scene url="#Scene" />
  </scene>
</COLLADA>
