<?xml version='1.0' encoding='utf-8'?>
<COLLADA xmlns="http://www.collada.org/2005/11/COLLADASchema" version="1.4.1">
  <asset>
    <contributor>
      <author>Blender User</author>
      <authoring_tool>Blender 4.4.3 commit date:2025-04-29, commit time:14:09, hash:802179c51ccc</authoring_tool>
    </contributor>
    <created>2026-08-03T09:54:38</created>
    <modified>2026-08-03T09:54:38</modified>
    <unit name="millimeter" meter="0.001" />
    <up_axis>Z_UP</up_axis>
  </asset>
  <library_effects>
    <effect id="Material_1-effect">
      <profile_COMMON>
        <technique sid="common">
          <lambert>
            <emission>
              <color sid="emission">0 0 0 1</color>
            </emission>
            <diffuse>
              <color sid="diffuse">0.03310477 0.03310477 0.03310477 1</color>
            </diffuse>
            <index_of_refraction>
              <float sid="ior">1.5</float>
            </index_of_refraction>
          </lambert>
        </technique>
      </profile_COMMON>
    </effect>
    <effect id="Material_0-effect">
      <profile_COMMON>
        <technique sid="common">
          <lambert>
            <emission>
              <color sid="emission">0 0 0 1</color>
            </emission>
            <diffuse>
              <color sid="diffuse">0.07421356 0.07421356 0.07421356 1</color>
            </diffuse>
            <index_of_refraction>
              <float sid="ior">1.5</float>
            </index_of_refraction>
          </lambert>
        </technique>
      </profile_COMMON>
    </effect>
  </library_effects>
  <library_images />
  <library_materials>
    <material id="Material_1-material" name="Material_1">
      <instance_effect url="#Material_1-effect" />
    </material>
    <material id="Material_0-material" name="Material_0">
      <instance_effect url="#Material_0-effect" />
    </material>
  </library_materials>
  <library_geometries>
    <geometry id="Mesh2-mesh" name="Mesh2">
      <mesh>
        <source id="Mesh2-mesh-positions">
          <float_array id="Mesh2-mesh-positions-array" count="582">125 137.7349 61.25 125 -142 55.25 125 142 12.5 125 95.9908 87 125 -142 12.5 125 -95.9923 87 125 135.6024 85.62501 125 188.5 0 125 -142 98 125 133.4698 110 125 -188.5 0 125 188.5 12.5 125 -106 114.4958 125 106 114.5 125 -188.5 12.5 125 -121 114.4958 125 154 122 125 -152 122 125 154 110 125 135 142 125 -124 122 125 -156 98 125 136 142 125 107 142 125 -121 122 125 -152 145 125 -156 122 125 160 122 125 106 142 125 135 147.75 125 -124 145 125 160 146.6 125 135 153.5 125 136 146.6 125 107 165 125 135 165 -125 133.4698 110 125 133.4698 110 125 142 12.5 -125 142 12.5 125 154 110 125 133.4698 110 -125 133.4698 110 -125 154 110 -125 154 122 125 154 122 125 154 110 -125 154 110 -125 160 122 125 160 122 125 154 122 -125 154 122 -125 160 146.6 125 160 146.6 125 160 122 -125 160 122 -125 136 146.6 125 136 146.6 125 160 146.6 -125 160 146.6 -125 136 142 125 136 142 125 136 146.6 -125 136 146.6 -125 135 165 125 135 165 125 135 142 -125 135 142 -125 107 165 125 107 165 125 135 165 -125 135 165 -125 107 142 125 107 165 -125 107 165 125 107 142 -125 106 142 125 106 142 125 107 142 -125 107 142 -125 95.9908 87 125 95.9908 87 125 106 114.5 -125 106 114.5 125 106 142 -125 106 142 -125 -95.9923 87 125 -95.9923 87 125 95.9908 87 -125 95.9908 87 -125 -106 114.4958 125 -106 114.4958 125 -95.9923 87 -125 -95.9923 87 125 -124 122 125 -121 122 -125 -121 122 -125 -124 122 -125 -124 145 125 -124 145 125 -124 122 -125 -124 122 -125 -152 145 125 -152 145 125 -124 145 -125 -124 145 125 -152 122 125 -152 145 -125 -152 145 -125 -152 122 125 -156 122 125 -152 122 -125 -152 122 -125 -156 122 -125 -156 98 125 -156 98 125 -156 122 -125 -156 122 125 -188.5 12.5 125 -142 12.5 -125 -142 12.5 -125 -188.5 12.5 125 -188.5 0 -125 -188.5 0 -125 188.5 0 125 188.5 0 125 142 12.5 125 188.5 12.5 -125 188.5 12.5 -125 142 12.5 -125 154 110 -125 133.4698 110 -125 154 122 -125 106 114.5 -125 95.9908 87 -125 135 142 -125 135.6024 85.62501 -125 136 142 -125 107 142 -125 137.7349 61.25 -125 160 122 -125 106 142 -125 135 147.75 -125 -142 55.25 -125 160 146.6 -125 135 153.5 -125 -95.9923 87 -125 142 12.5 -125 136 146.6 -125 107 165 -125 -142 98 -125 -142 12.5 -125 135 165 -125 -106 114.4958 -125 188.5 0 -125 -121 114.4958 -125 -188.5 0 -125 188.5 12.5 -125 -152 122 -125 -188.5 12.5 -125 -124 122 -125 -156 98 -125 -124 145 -125 -121 122 -125 -156 122 -125 -152 145 -125 135 142 125 135 142 -125 136 142 125 136 142 -125 -121 122 125 -121 122 125 -121 114.4958 -125 -121 114.4958 -125 -106 114.4958 -125 -121 114.4958 125 -121 114.4958 125 -106 114.4958 -125 -142 12.5 125 -142 12.5 125 -142 98 -125 -142 98 -125 -156 98 -125 -142 98 125 -142 98 125 -156 98 -125 -188.5 0 125 -188.5 0 125 -188.5 12.5 -125 -188.5 12.5 -125 188.5 12.5 125 188.5 12.5 125 188.5 0 -125 188.5 0</float_array>
          <technique_common>
            <accessor source="#Mesh2-mesh-positions-array" count="194" stride="3">
              <param name="X" type="float" />
              <param name="Y" type="float" />
              <param name="Z" type="float" />
            </accessor>
          </technique_common>
        </source>
        <source id="Mesh2-mesh-normals">
          <float_array id="Mesh2-mesh-normals-array" count="48">1 0 0 1 -1.82478e-7 0 0 0.9961947 0.08715617 0 0.9961947 0.08715647 0 0 -1 0 1 0 0 0 1 0 -1 0 0 -0.9396924 0.3420208 0 -0.9396924 0.3420208 0 -0.9848077 0.1736491 0 -0.9848079 0.1736478 0 0.9396921 0.3420217 -1 0 0 -1 0 0 -1 0 0</float_array>
          <technique_common>
            <accessor source="#Mesh2-mesh-normals-array" count="16" stride="3">
              <param name="X" type="float" />
              <param name="Y" type="float" />
              <param name="Z" type="float" />
            </accessor>
          </technique_common>
        </source>
        <vertices id="Mesh2-mesh-vertices">
          <input semantic="POSITION" source="#Mesh2-mesh-positions" />
        </vertices>
        <triangles material="Material_1-material" count="130">
          <input semantic="VERTEX" source="#Mesh2-mesh-vertices" offset="0" />
          <input semantic="NORMAL" source="#Mesh2-mesh-normals" offset="1" />
          <p>0 0 1 0 2 0 3 0 1 0 0 0 1 0 4 0 2 0 5 0 1 0 3 0 3 0 0 0 6 0 2 0 4 0 7 0 8 0 1 0 5 0 6 0 9 0 3 0 10 0 7 0 4 0 11 0 2 0 7 0 5 0 12 0 8 0 9 0 13 0 3 0 4 0 14 0 10 0 12 0 15 0 8 0 9 0 16 0 13 0 8 1 15 1 17 1 16 0 9 0 18 0 13 0 16 0 19 0 17 0 15 0 20 0 21 0 8 0 17 0 19 0 16 0 22 0 23 0 13 0 19 0 24 0 20 0 15 0 20 0 25 0 17 0 26 0 21 0 17 0 16 0 27 0 22 0 23 0 28 0 13 0 19 0 29 0 23 0 25 0 20 0 30 0 22 0 27 0 31 0 32 0 23 0 29 0 33 0 22 0 31 0 23 0 32 0 34 0 35 0 34 0 32 0 36 2 37 2 38 2 38 3 39 3 36 3 40 4 41 4 42 4 42 4 43 4 40 4 44 5 45 5 46 5 46 5 47 5 44 5 48 4 49 4 50 4 50 4 51 4 48 4 52 5 53 5 54 5 54 5 55 5 52 5 56 6 57 6 58 6 58 6 59 6 56 6 60 7 61 7 62 7 62 7 63 7 60 7 64 5 65 5 66 5 66 5 67 5 64 5 68 6 69 6 70 6 70 6 71 6 68 6 72 7 73 7 74 7 73 7 72 7 75 7 76 6 77 6 78 6 78 6 79 6 76 6 80 8 81 9 82 10 82 10 83 11 80 8 83 11 82 10 84 7 84 7 85 7 83 11 86 6 87 6 88 6 88 6 89 6 86 6 90 12 91 12 92 12 92 12 93 12 90 12 94 6 95 6 96 6 96 6 97 6 94 6 98 5 99 5 100 5 100 5 101 5 98 5 102 6 103 6 104 6 104 6 105 6 102 6 106 7 107 7 108 7 108 7 109 7 106 7 110 6 111 6 112 6 112 6 113 6 110 6 114 7 115 7 116 7 116 7 117 7 114 7 118 6 119 6 120 6 120 6 121 6 118 6 122 4 123 4 124 4 124 4 125 4 122 4 126 6 127 6 128 6 128 6 129 6 126 6 130 13 131 13 132 13 132 13 131 13 133 13 134 13 133 13 131 13 135 13 132 13 133 13 131 14 136 14 134 14 137 13 132 13 135 13 133 13 138 13 135 13 139 15 134 15 136 15 137 13 140 13 132 13 138 13 133 13 141 13 135 13 138 13 142 13 143 13 134 13 139 13 137 13 144 13 140 13 138 13 145 13 142 13 143 13 146 13 134 13 143 13 139 13 147 13 148 13 144 13 137 13 149 13 145 13 138 13 146 13 143 13 150 13 147 13 151 13 143 13 149 13 152 13 145 13 150 13 153 13 146 13 154 13 151 13 147 13 153 13 150 13 155 13 151 13 154 13 156 13 147 13 157 13 154 13 158 13 155 13 150 13 159 13 151 13 156 13 155 13 158 13 160 13 158 13 150 13 161 13 158 13 162 13 160 13 163 13 155 13 160 13 161 13 164 13 158 13 165 13 162 13 158 13 166 6 167 6 168 6 169 6 168 6 167 6 170 5 171 5 172 5 172 5 173 5 170 5 174 6 175 6 176 6 176 6 177 6 174 6 178 7 179 7 180 7 180 7 181 7 178 7 182 4 183 4 184 4 184 4 185 4 182 4 186 7 187 7 188 7 188 7 189 7 186 7 190 5 191 5 192 5 192 5 193 5 190 5</p>
        </triangles>
      </mesh>
    </geometry>
    </library_geometries>
  <library_visual_scenes>
    <visual_scene id="Scene" name="Scene">
      <node id="KL100_Nennhub1750_einfach_Default_008" name="KL100_Nennhub1750_einfach_Default.008" type="NODE">
          <matrix sid="transform">1 0 0 0 0 1 0 0 0 0 1 0 0 0 0 1</matrix>
          <instance_geometry url="#Mesh2-mesh" name="KL100_Nennhub1750_einfach_Default.008">
            <bind_material>
              <technique_common>
                <instance_material symbol="Material_1-material" target="#Material_1-material" />
              </technique_common>
            </bind_material>
          </instance_geometry>
        </node>
        </visual_scene>
  </library_visual_scenes>
  <scene>
    <instance_visual_scene url="#Scene" />
  </scene>
</COLLADA>
